<?xml version="1.0" encoding="utf-8"?>
<!-- Generator: Adobe Illustrator 16.0.0, SVG Export Plug-In . SVG Version: 6.00 Build 0)  -->
<!DOCTYPE svg PUBLIC "-//W3C//DTD SVG 1.1//EN" "http://www.w3.org/Graphics/SVG/1.1/DTD/svg11.dtd">
<svg version="1.1" id="Vrstva_1" xmlns="http://www.w3.org/2000/svg" xmlns:xlink="http://www.w3.org/1999/xlink" x="0px" y="0px"
	 width="684.167px" height="326px" viewBox="0 0 684.167 326" enable-background="new 0 0 684.167 326" xml:space="preserve">
<rect x="296" y="66" fill-rule="evenodd" clip-rule="evenodd" fill="#0D0B19" width="80.795" height="187.157"/>
<path fill-rule="evenodd" clip-rule="evenodd" fill="#0D0B19" d="M0,256.22C0,170.813,0,85.406,0,0c228.055,0,456.109,0,684.166,0
	c0,84.836,0,169.673,0,254.51c-7.525,0.011-15.049,0.021-22.572,0.032c-2.512,0-5.025,0-7.537,0c-0.338,0-0.676,0-1.014,0.001
	c-3.428,0.003-6.854,0.007-10.279,0.011c-0.449,0.001-0.898,0.001-1.348,0.002c-2.176,0.003-4.35,0.006-6.525,0.009
	c-2.158,0.004-4.314,0.007-6.473,0.011c-0.922,0.002-1.844,0.003-2.766,0.005c-3.18,0.005-6.361,0.011-9.541,0.017
	c-5.631,0.079-11.262,0.221-16.893,0.227c-28.9,0.03-57.799-0.015-86.697,0.047c-17.602,0.037-35.203,0.217-52.807,0.333
	c-0.086-2.485-0.219-4.971-0.25-7.457c-0.064-4.925-0.07-9.851-0.102-14.776c-0.109-12.429-0.219-24.856-0.328-37.285
	c-0.1-9.42-0.205-18.84-0.297-28.26c-0.027-2.897-0.023-5.795-0.033-8.691c-0.008-1.032-0.014-2.064-0.02-3.096
	c0-0.221-0.002-0.441-0.002-0.661c-0.002-0.579-0.004-1.159-0.006-1.738c-0.002-0.56-0.004-1.12-0.006-1.68
	c-0.09-4.373-0.221-8.746-0.262-13.12c-0.139-14.168-0.262-28.337-0.357-42.505c-0.047-6.719-0.051-13.439-0.002-20.158
	c0.01-1.397-0.43-2.044-1.859-1.874c-0.451,0.053-0.906,0.076-1.357,0.113c-2.695,1.666-5.391,3.332-8.086,4.999
	c-1.383,0.861-2.766,1.723-4.146,2.584c-1.32,0.754-2.639,1.509-3.959,2.263c-0.145-0.345-0.385-0.682-0.416-1.037
	c-0.316-3.495-0.307-3.496-3.816-3.452c-0.111,0.002-0.225,0.008-0.336,0.012c-1.26,0.023-2.518,0.045-3.777,0.067
	c-8.08-0.021-16.16-0.042-24.24-0.063c-4.428-0.112-8.855-0.278-13.286-0.323c-6.03-0.062-12.063-0.008-18.094-0.058
	c-1.119-0.01-1.481,0.361-1.471,1.472c0.045,4.779,0.008,9.559,0.022,14.339c0.017,5.575,0.056,11.149,0.086,16.724
	c0.066,5.211,0.16,10.423,0.192,15.635c0.041,6.525,0.031,13.051,0.044,19.577c0.011,8.781,0.021,17.563,0.032,26.344
	c-0.123,7.455-0.253,14.911-0.355,22.366c-0.006,0.41,0.212,0.823,0.326,1.234c0.002,3.536,0.005,7.071,0.008,10.606
	c0.002,1.937,0.006,3.873,0.009,5.81c0.013,6.123,0.015,12.246,0.046,18.369c0.008,1.524,0.109,3.048,0.168,4.571
	c0.026,4.785,0.052,9.569,0.078,14.354c-0.09,1.613-0.18,3.226-0.275,4.945c0.02-0.008-0.135,0.11-0.287,0.109
	c-4.896-0.062-9.794-0.144-14.691-0.192c-0.605-0.006-1.215,0.16-1.822,0.246c-4.331,0.005-8.662,0.01-12.994,0.015
	c-3.192,0.001-6.385,0.002-9.578,0.003c-0.57,0.001-1.141,0.003-1.711,0.004c-0.342,0.002-0.684,0.003-1.025,0.004
	c-6.271,0.004-12.542,0.007-18.813,0.011c-1.083-0.011-2.166-0.032-3.248-0.028c-30.14,0.109-60.28,0.236-90.42,0.329
	c-41.766,0.129-83.533,0.262-125.3,0.336C62.465,256.246,31.232,256.213,0,256.22z M341.473,241.377
	c0.89,0.315,2.323,0.402,2.982,1.161c0.903,1.041,1.764,1.345,3.033,1.44c0.785,0.059,2.244-0.163,2.081,1.347
	c-0.158,1.46,0.712,1.711,1.756,1.939c1.64,0.358,3.521,0.047,4.647,1.817c0.194,0.306,0.809,0.402,1.248,0.482
	c1.527,0.277,3.359-0.224,4.211,1.721c0.029,0.068,0.206,0.104,0.313,0.104c2.478-0.011,4.956,0.011,7.431-0.082
	c0.424-0.017,1.029-0.436,1.207-0.826c0.678-1.481,1.593-2.994,1.727-4.555c0.34-3.958,0.365-7.947,0.404-11.925
	c0.057-5.73,0.052-11.462-0.001-17.192c-0.026-2.951-0.274-5.9-0.315-8.853c-0.143-10.304-0.248-20.608-0.34-30.913
	c-0.009-1.068,0.401-2.176,0.23-3.201c-0.618-3.696-0.772-7.38-0.648-11.135c0.148-4.511-0.127-9.039-0.31-13.556
	c-0.05-1.229-0.56-2.438-0.629-3.667c-0.187-3.346-0.519-6.715-0.31-10.045c0.473-7.529-0.962-14.939-1.11-22.422
	c-0.021-1.109-0.489-2.207-0.546-3.32c-0.154-3.042,0.188-6.168-0.4-9.113c-0.553-2.758-0.537-5.604-1.646-8.331
	c-0.916-2.255-0.612-2.604-3.06-2.597c-1.243,0.003-1.629-0.465-1.515-1.613c0.056-0.564,0.195-1.238-0.04-1.688
	c-0.409-0.781-0.969-1.857-1.661-2.033c-1.149-0.29-2.473-0.069-3.683,0.154c-0.492,0.092-1.161,0.695-1.262,1.168
	c-0.362,1.716-1.356,2.031-2.867,1.668c-0.965-0.232-1.706-0.027-1.806,1.162c-0.066,0.785-0.403,1.622-0.227,2.34
	c0.392,1.59-0.383,2.272-1.697,2.578c-1.277,0.297-1.73,1.094-1.805,2.305c-0.136,2.188-0.384,2.404-2.596,2.477
	c-0.512,0.018-1.025,0.004-1.539,0.004c-3.619,0.001-3.568,0.004-3.77,3.51c-0.043,0.756-0.545,2.077-0.944,2.119
	c-2.188,0.234-2.177,1.699-2.075,3.223c0.088,1.295-0.278,1.822-1.696,1.788c-2.716-0.065-3.384,0.978-2.489,3.488
	c0.116,0.325,0.133,0.728,0.064,1.067c-0.318,1.596-0.771,3.171-0.994,4.779c-0.124,0.897-0.254,1.482-1.297,1.637
	c-1.161,0.174-1.928,1.018-1.773,2.154c0.41,3.008-1.101,5.088-3.307,6.605c-2.012,1.384-2.384,3.156-2.215,5.306
	c0.036,0.453,0.125,0.957-0.025,1.356c-0.185,0.484-0.51,1.125-0.926,1.273c-1.406,0.5-1.709,1.288-1.162,2.633
	c0.773,1.902,0.604,2.297-1.346,2.764c-0.963,0.229-1.385,0.623-1.33,1.599c0.078,1.429,0.532,3.01,0.085,4.261
	c-1.063,2.972-0.586,5.974-0.806,8.959c-0.039,0.521-0.521,1.278-0.976,1.448c-1.144,0.425-1.396,1.185-1.384,2.249
	c0.025,2.196,0.016,4.394,0.005,6.591c-0.013,2.747-0.056,5.495-0.059,8.243c-0.003,2.197,0.475,4.505-0.042,6.567
	c-1.01,4.034,1.125,7.804,0.506,11.735c-0.025,0.153,0.109,0.324,0.127,0.491c0.214,2.068,0.646,4.146,0.566,6.203
	c-0.084,2.143,0.24,2.775,2.387,2.997c0.561,0.058,1.568,0.527,1.548,0.723c-0.136,1.312,0.938,3.001-0.737,3.858
	c-0.927,0.474-1.514,1.015-1.123,1.899c0.219,0.494,1.078,0.892,1.701,0.985c2.986,0.452,3.334,0.794,3.338,3.794
	c0.001,0.514-0.12,1.067,0.033,1.531c0.342,1.035,0.795,2.037,1.254,3.028c0.326,0.702,0.816,1.334,1.089,2.053
	c0.394,1.036,0.364,2.773,1.026,3.068c2.039,0.908,2.098,2.782,2.734,4.36c0.439,1.091,1.037,1.817,2.225,1.675
	c1.881-0.227,2.318,0.606,2.314,2.353c-0.001,1.003,0.495,2.204,1.168,2.96c0.91,1.023,2.244,1.656,3.32,2.548
	c0.752,0.622,1.31,1.494,2.448,0.565c0.183-0.149,1.149,0.202,1.216,0.461C341.59,239.773,341.473,240.536,341.473,241.377z"/>
<path fill-rule="evenodd" clip-rule="evenodd" fill="#009C64" d="M312.666,255.553c6.271-0.004,12.542-0.007,18.813-0.011
	c-0.324,0.447-0.6,1.234-0.98,1.288c-3.125,0.444-6.27,0.752-9.408,1.101c-2.189,0.242-4.415,0.313-6.561,0.765
	c-3.794,0.801-7.536,1.849-11.31,2.753c-0.46,0.11-1.038,0.116-1.458-0.067c-1.288-0.563-2.288-0.464-2.585,0.371
	c-1.631,0.252-2.794,0.504-3.971,0.6c-2.752,0.225-0.303,2.111-1.137,3.348c-0.503-0.841-0.888-1.483-1.012-1.69
	c-1.211,0.303-2.306,0.437-3.28,0.854c-1.451,0.622-3.672-0.65-4.275,1.776c-0.66-0.257-1.314-0.772-1.744-0.627
	c-1.08,0.365-2.005,1.228-3.092,1.524c-1.438,0.394-2.969,0.451-4.462,0.629c-0.682,0.081-1.412-0.022-2.048,0.182
	c-0.848,0.271-1.627,0.762-2.392,1.138c-2.713-2.211-5.972-1.556-6.955,1.316c-0.724-0.063-1.734-0.459-2.124-0.128
	c-1.195,1.021-2.317,0.556-3.499,0.25c-1.192-0.308-2.312-0.518-3.232,0.683c-0.159,0.208-0.883-0.065-1.339-0.024
	c-0.698,0.063-1.75-0.038-2.019,0.358c-0.993,1.467-2.122,1.131-3.425,0.698c-0.71-0.235-1.502-0.391-2.241-0.341
	c-1.864,0.123-3.592,1.833-5.625,0.419c-0.202-0.141-1.002,0.254-1.274,0.598c-0.823,1.043-1.699,0.891-2.856,0.628
	c-1.908-0.434-3.934-0.869-5.31,1.337c-0.184,0.296-1.308,0.333-1.757,0.073c-1.286-0.743-2.45-0.54-3.732-0.075
	c-0.553,0.2-1.245,0.135-1.851,0.043c-0.938-0.143-1.859-0.595-2.786-0.592c-2.484,0.011-5.115-0.672-7.242,1.525
	c-0.164-0.812-0.263-1.305-0.45-2.229c-0.711,0.771-1.106,1.287-1.592,1.694c-0.328,0.274-0.778,0.545-1.184,0.562
	c-1.211,0.05-2.763,0.437-3.571-0.15c-1.665-1.208-2.774,0.013-4.17,0.188c-2.413,0.303-4.891,0.094-7.342,0.073
	c-0.384-0.004-0.891-0.013-1.129-0.241c-1.522-1.454-2.56-0.267-3.819,0.491c-1.258,0.758-2.799,1.845-4.032,1.646
	c-1.581-0.256-3.131-0.58-4.757-0.572c-2.839,0.014-5.682,0.031-8.515-0.115c-1.498-0.077-2.983-0.471-4.463-0.778
	c-0.429-0.089-0.801-0.465-1.229-0.543c-0.382-0.069-1.128,0.021-1.16,0.163c-0.305,1.385-1.388,0.835-2.201,1
	c-1.237,0.251-2.466,0.551-3.678,0.901c-0.486,0.141-0.918,0.47-1.374,0.713c-0.252-0.475-0.542-0.933-0.743-1.428
	c-0.139-0.345-0.155-0.738-0.305-1.522c-1.454,0.465-2.894,1.456-4.038,1.188c-3.011-0.706-5.616,0.216-8.303,1.15
	c-0.203,0.07-0.454-0.012-0.68,0.003c-0.929,0.063-1.857,0.137-2.99,0.221c-0.872-1.27-2.287-1.51-3.413-0.451
	c-0.49,0.461-1.266,0.886-1.902,0.873c-1.631-0.033-3.261-0.498-4.885-0.468c-3.348,0.062-6.692,0.348-10.04,0.514
	c-2.664,0.133-5.33,0.273-7.996,0.295c-0.572,0.005-1.137-0.518-1.725-0.743c-0.48-0.184-1.259-0.563-1.447-0.383
	c-1.456,1.41-2.979,0.456-4.542,0.458c-3.613,0.003-7.226,0.523-10.838,0.843c-0.103,0.009-0.193,0.117-0.296,0.164
	c-1.201,0.549-2.318,0.801-3.363-0.41c-0.308-0.356-0.999-0.519-1.52-0.531c-2.454-0.056-4.911-0.004-7.366-0.047
	c-0.842-0.015-1.688-0.315-2.521-0.27c-2.824,0.157-5.642,0.431-8.465,0.62c-1.332,0.089-2.775-0.306-3.725,1.111
	c-0.106,0.159-0.55,0.225-0.776,0.149c-1.191-0.397-2.357-0.869-3.544-1.281c-0.415-0.144-0.86-0.255-1.296-0.271
	c-0.998-0.035-1.998-0.017-2.996,0.007c-1.459,0.034-2.918,0.072-4.375,0.154c-0.324,0.018-0.632,0.24-0.956,0.345
	c-0.864,0.28-1.72,0.597-2.6,0.811c-2.308,0.562-4.731-2.263-6.989,0.224c-0.024,0.027-0.11-0.003-0.167-0.003
	c-1.926,0.026-3.862-0.053-5.776,0.111c-1.846,0.157-2.897-0.322-3.584-1.994c-0.051-0.125-0.264-0.183-0.467-0.313
	c-0.343,0.274-0.678,0.541-1.108,0.885c-0.774-1.373-1.52-1.513-2.606-0.266c-0.583,0.67-1.611,1.172-2.506,1.312
	c-2.774,0.431-5.318-0.369-7.635-1.924c-1.593,1.354-1.589,1.34-3.867,0.706c-0.365-0.102-0.786-0.024-1.179-0.003
	c-2.957,0.164-6.044,0.936-8.831,0.327c-2.563-0.56-5.04,0.359-7.47-0.42c0-4.562,0-9.123,0-13.684c2.28,0,4.559-0.007,6.839,0.005
	c0.508,0.003,1.097-0.081,1.513,0.135c2.651,1.378,5.4,0.955,8.167,0.601c1.363-0.175,2.881-0.68,4.083-0.285
	c3.318,1.088,6.655,0.302,9.966,0.551c0.6,0.045,1.217-0.244,1.83-0.264c1.32-0.043,2.644-0.057,3.963-0.001
	c1.698,0.071,3.391,0.252,5.088,0.331c1.7,0.079,3.403,0.098,5.104,0.134c2.306,0.05,4.705,0.502,6.891,0.011
	c1.842-0.414,3.506-0.412,5.312-0.229c2.48,0.252,4.984,0.308,7.479,0.368c2.365,0.058,4.739,0.12,7.098-0.015
	c2.914-0.166,5.819,0.461,8.761-0.235c1.419-0.335,3.034,0.261,4.558,0.242c5.494-0.063,10.988-0.228,16.482-0.313
	c2.963-0.046,5.927-0.008,8.891-0.008c2.937,0,5.874,0.021,8.81-0.017c0.664-0.009,1.458-0.031,1.96-0.38
	c1.246-0.864,2.442-0.688,3.732-0.258c2.699,0.899,5.385,1.24,8.047-0.194c0.366-0.197,1.076-0.323,1.301-0.121
	c1.32,1.187,2.684,0.61,4.078,0.306c0.367-0.08,0.805-0.001,1.174,0.118c2.45,0.789,4.854,1.055,7.21-0.337
	c0.307-0.182,0.777-0.137,1.168-0.118c1.958,0.091,3.915,0.305,5.872,0.293c2.552-0.017,5.114-0.093,7.652-0.344
	c4.289-0.423,8.615,1,12.875-0.312c0.104-0.032,0.228-0.001,0.341-0.006c3.293-0.142,6.586-0.284,9.88-0.426
	c4.649-0.2,9.296-0.45,13.947-0.583c3.189-0.091,6.383-0.009,9.575-0.023c0.563-0.003,1.247,0.087,1.667-0.185
	c1.559-1.009,3.103-0.821,4.729-0.282c0.47,0.156,1.02,0.17,1.52,0.117c1.845-0.193,3.679-0.557,5.526-0.637
	c1.703-0.073,3.485,0.743,5.036-0.626c0.131-0.115,0.446-0.073,0.663-0.033c4.492,0.843,8.886-0.124,13.323-0.608
	c3.438-0.375,6.928-0.258,10.384-0.509c3.41-0.248,6.808-0.685,10.21-1.038c0.782-0.082,1.563-0.207,2.348-0.234
	c1.966-0.069,3.945,0.026,5.897-0.163c3.478-0.337,6.936-0.874,10.41-1.258c3.352-0.369,6.718-0.624,10.072-0.98
	c1.799-0.191,3.581-0.639,5.381-0.712c4.828-0.198,9.662-0.24,14.492-0.398C311.766,256.177,312.213,255.775,312.666,255.553z"/>
<path fill-rule="evenodd" clip-rule="evenodd" fill="#008653" d="M0,278.798c2.431,0.779,4.907-0.14,7.47,0.42
	c2.787,0.608,5.875-0.163,8.831-0.327c0.393-0.021,0.813-0.099,1.179,0.003c2.278,0.634,2.273,0.648,3.867-0.706
	c2.316,1.555,4.86,2.354,7.635,1.924c0.896-0.14,1.923-0.642,2.506-1.312c1.086-1.247,1.832-1.107,2.606,0.266
	c0.43-0.344,0.765-0.61,1.108-0.885c0.203,0.131,0.416,0.188,0.467,0.313c0.687,1.672,1.738,2.151,3.584,1.994
	c1.915-0.164,3.85-0.085,5.776-0.111c0.057,0,0.142,0.03,0.167,0.003c2.258-2.486,4.681,0.338,6.989-0.224
	c0.88-0.214,1.736-0.53,2.6-0.811c0.323-0.104,0.632-0.327,0.956-0.345c1.457-0.082,2.916-0.12,4.375-0.154
	c0.998-0.023,1.998-0.042,2.996-0.007c0.436,0.016,0.881,0.127,1.296,0.271c1.187,0.412,2.353,0.884,3.544,1.281
	c0.226,0.075,0.67,0.01,0.776-0.149c0.949-1.417,2.393-1.022,3.725-1.111c2.823-0.189,5.641-0.463,8.465-0.62
	c0.833-0.046,1.679,0.255,2.521,0.27c2.455,0.043,4.912-0.009,7.366,0.047c0.521,0.013,1.212,0.175,1.52,0.531
	c1.045,1.211,2.162,0.959,3.363,0.41c0.103-0.047,0.193-0.155,0.296-0.164c3.612-0.319,7.225-0.84,10.838-0.843
	c1.564-0.002,3.087,0.952,4.542-0.458c0.188-0.181,0.966,0.199,1.447,0.383c0.588,0.226,1.153,0.748,1.725,0.743
	c2.666-0.021,5.332-0.162,7.996-0.295c3.348-0.166,6.692-0.452,10.04-0.514c1.625-0.03,3.254,0.435,4.885,0.468
	c0.637,0.013,1.412-0.412,1.902-0.873c1.126-1.059,2.541-0.818,3.413,0.451c1.133-0.084,2.061-0.157,2.99-0.221
	c0.227-0.015,0.478,0.067,0.68-0.003c2.687-0.935,5.292-1.856,8.303-1.15c1.145,0.269,2.584-0.723,4.038-1.188
	c0.15,0.784,0.166,1.178,0.305,1.522c0.201,0.495,0.491,0.953,0.743,1.428c0.456-0.243,0.888-0.572,1.374-0.713
	c1.212-0.351,2.441-0.65,3.678-0.901c0.813-0.165,1.896,0.385,2.201-1c0.032-0.142,0.778-0.232,1.16-0.163
	c0.428,0.078,0.8,0.454,1.229,0.543c1.48,0.308,2.965,0.701,4.463,0.778c2.833,0.146,5.676,0.129,8.515,0.115
	c1.625-0.008,3.176,0.316,4.757,0.572c1.233,0.199,2.774-0.888,4.032-1.646c1.259-0.758,2.296-1.945,3.819-0.491
	c0.238,0.229,0.745,0.237,1.129,0.241c2.451,0.021,4.929,0.229,7.342-0.073c1.396-0.176,2.505-1.396,4.17-0.188
	c0.808,0.587,2.36,0.2,3.571,0.15c0.406-0.017,0.856-0.287,1.184-0.562c0.486-0.407,0.881-0.924,1.592-1.694
	c0.187,0.924,0.286,1.417,0.45,2.229c2.127-2.197,4.758-1.515,7.242-1.525c0.927-0.003,1.847,0.449,2.786,0.592
	c0.606,0.092,1.298,0.157,1.851-0.043c1.282-0.465,2.446-0.668,3.732,0.075c0.449,0.26,1.573,0.223,1.757-0.073
	c1.375-2.206,3.402-1.771,5.31-1.337c1.158,0.263,2.034,0.415,2.856-0.628c0.272-0.344,1.072-0.738,1.274-0.598
	c2.033,1.414,3.761-0.296,5.625-0.419c0.739-0.05,1.531,0.105,2.241,0.341c1.303,0.433,2.432,0.769,3.425-0.698
	c0.269-0.396,1.32-0.295,2.019-0.358c0.456-0.041,1.18,0.232,1.339,0.024c0.92-1.2,2.04-0.99,3.232-0.683
	c1.182,0.306,2.304,0.771,3.499-0.25c0.39-0.331,1.399,0.064,2.124,0.128c0.983-2.872,4.242-3.527,6.955-1.316
	c0.765-0.376,1.543-0.866,2.392-1.138c0.636-0.204,1.366-0.101,2.048-0.182c1.494-0.178,3.025-0.235,4.462-0.629
	c1.087-0.297,2.012-1.159,3.092-1.524c0.43-0.146,1.084,0.37,1.744,0.627c0.603-2.427,2.824-1.154,4.275-1.776
	c0.974-0.417,2.069-0.551,3.28-0.854c0.124,0.207,0.508,0.85,1.012,1.69c0.834-1.236-1.615-3.123,1.137-3.348
	c1.176-0.096,2.34-0.348,3.971-0.6c0.297-0.835,1.297-0.935,2.585-0.371c0.42,0.184,0.998,0.178,1.458,0.067
	c3.774-0.904,7.516-1.952,11.31-2.753c2.146-0.452,4.371-0.522,6.561-0.765c3.139-0.349,6.283-0.656,9.408-1.101
	c0.381-0.054,0.656-0.841,0.98-1.288c0.342-0.001,0.684-0.002,1.025-0.004c0.573,1.073,1.144,1.076,1.711-0.004
	c3.193-0.001,6.386-0.002,9.578-0.003c-0.16,0.212-0.301,0.588-0.484,0.609c-1.537,0.179-3.088,0.239-4.623,0.438
	c-1.494,0.195-2.979,0.49-4.46,0.781c-2.507,0.492-5.013,0.989-7.509,1.537c-1.94,0.426-3.955,0.707-5.773,1.454
	c-2.561,1.052-4.967,2.478-7.444,3.735c-0.2,0.101-0.429,0.158-0.651,0.2c-2.641,0.503-5.286,0.981-7.919,1.519
	c-0.306,0.063-0.546,0.443-0.816,0.677c-1.369,0.229-2.737,0.456-4.105,0.685c-1.026,0.114-2.053,0.229-3.079,0.344
	c-0.227,0-0.454,0-0.682,0c-0.458,0.227-0.915,0.452-1.372,0.679c-0.456,0.001-0.912,0.003-1.368,0.004
	c-0.201-0.066-0.415-0.216-0.601-0.187c-2.459,0.386-4.908,0.848-7.373,1.191c-6.108,0.852-12.231,1.591-18.332,2.489
	c-9.628,1.417-19.243,2.935-28.865,4.396c-5.371,0.815-10.743,1.614-16.118,2.4c-7.893,1.155-15.805,2.188-23.678,3.463
	c-9.34,1.512-18.706,2.767-28.111,3.799c-4.974,0.546-9.883,1.663-14.833,2.454c-1.282,0.205-2.618,0.058-3.907,0.235
	c-6.26,0.863-12.502,1.866-18.772,2.653c-4.014,0.504-8.073,0.638-12.094,1.093c-2.629,0.298-5.068,1.471-7.891,1.149
	c-1.808-0.207-3.723,0.857-5.619,1.02c-2.804,0.238-5.633,0.175-8.451,0.255c-0.44,0.013-1.145-0.051-1.275,0.178
	c-0.804,1.412-2.111,1.076-3.327,1.123c-2.779,0.106-5.561,0.18-8.335,0.361c-1.232,0.081-2.458,0.353-3.673,0.604
	c-2.736,0.566-5.492,1.072-8.186,1.799c-2.307,0.622-4.386-1.138-6.979,0.108c-2.775,1.335-6.191,1.368-9.343,1.875
	c-1.251,0.201-2.601,0.293-2.458-1.732c0.021-0.292-0.629-0.858-0.999-0.885c-0.36-0.026-0.826,0.421-1.118,0.768
	c-0.226,0.268-0.255,0.701-0.418,1.206c-0.712-0.288-1.734-0.403-1.862-0.805c-0.555-1.741-1.449-1.361-2.561-0.688
	c-0.208,0.127-0.636,0.151-0.816,0.021c-1.448-1.05-2.36-0.642-2.787,1.062c-0.325-0.085-0.555-0.107-0.749-0.202
	c-2.361-1.154-2.66-0.913-2.765,1.751c-0.042,1.075-0.508,2.206-1.969,1.905c-0.723-0.148-1.567-0.447-2.03-0.968
	c-1.206-1.357-2.588-1.949-4.383-1.747c-2.47,0.278-5.225-0.103-7.35,0.888c-2.623,1.222-3.138,0.022-3.916-1.81
	c-0.393-0.928-1.361-1.188-1.858-0.301c-0.984,1.759-2.044,1.363-3.357,0.55c-0.405-0.25-0.979-0.216-1.465-0.352
	c-0.413-0.114-0.836-0.237-1.209-0.441c-0.585-0.319-1.132-0.709-1.695-1.069c-0.344,0.717-0.703,1.427-1.027,2.151
	c-0.284,0.635-0.461,1.795-0.803,1.84c-1.339,0.179-2.84,0.332-4.065-0.108c-1.91-0.687-4.281-0.689-5.445-2.869
	c-0.072-0.136-0.419-0.124-0.638-0.18C0,292.024,0,285.411,0,278.798z"/>
<path fill-rule="evenodd" clip-rule="evenodd" fill="#48B381" d="M312.666,255.553c-0.453,0.223-0.9,0.624-1.36,0.64
	c-4.83,0.158-9.664,0.2-14.492,0.398c-1.8,0.073-3.582,0.521-5.381,0.712c-3.354,0.356-6.72,0.611-10.072,0.98
	c-3.474,0.384-6.932,0.921-10.41,1.258c-1.952,0.189-3.931,0.094-5.897,0.163c-0.784,0.027-1.565,0.152-2.348,0.234
	c-3.403,0.354-6.8,0.79-10.21,1.038c-3.457,0.251-6.946,0.134-10.384,0.509c-4.438,0.484-8.831,1.451-13.323,0.608
	c-0.217-0.04-0.532-0.082-0.663,0.033c-1.551,1.369-3.333,0.553-5.036,0.626c-1.848,0.08-3.682,0.443-5.526,0.637
	c-0.5,0.053-1.05,0.039-1.52-0.117c-1.626-0.539-3.17-0.727-4.729,0.282c-0.421,0.271-1.104,0.182-1.667,0.185
	c-3.192,0.015-6.385-0.067-9.575,0.023c-4.651,0.133-9.298,0.383-13.947,0.583c-3.293,0.142-6.586,0.284-9.88,0.426
	c-0.113,0.005-0.236-0.026-0.341,0.006c-4.26,1.312-8.586-0.111-12.875,0.312c-2.538,0.251-5.1,0.327-7.652,0.344
	c-1.957,0.012-3.914-0.202-5.872-0.293c-0.391-0.019-0.861-0.063-1.168,0.118c-2.357,1.392-4.761,1.126-7.21,0.337
	c-0.369-0.119-0.807-0.198-1.174-0.118c-1.394,0.305-2.758,0.881-4.078-0.306c-0.226-0.202-0.935-0.076-1.301,0.121
	c-2.662,1.435-5.348,1.094-8.047,0.194c-1.29-0.431-2.486-0.606-3.732,0.258c-0.503,0.349-1.297,0.371-1.96,0.38
	c-2.936,0.038-5.873,0.017-8.81,0.017c-2.964,0-5.928-0.038-8.891,0.008c-5.494,0.086-10.988,0.251-16.482,0.313
	c-1.524,0.019-3.139-0.577-4.558-0.242c-2.942,0.696-5.847,0.069-8.761,0.235c-2.359,0.135-4.733,0.072-7.098,0.015
	c-2.496-0.061-4.999-0.116-7.479-0.368c-1.806-0.183-3.47-0.185-5.312,0.229c-2.186,0.491-4.585,0.039-6.891-0.011
	c-1.702-0.036-3.404-0.055-5.104-0.134c-1.697-0.079-3.39-0.26-5.088-0.331c-1.319-0.056-2.643-0.042-3.963,0.001
	c-0.613,0.02-1.23,0.309-1.83,0.264c-3.311-0.249-6.648,0.537-9.966-0.551c-1.202-0.395-2.72,0.11-4.083,0.285
	c-2.766,0.354-5.516,0.777-8.167-0.601c-0.416-0.216-1.004-0.132-1.513-0.135c-2.28-0.012-4.56-0.005-6.839-0.005
	c0-2.965,0-5.93,0-8.895c31.232-0.007,62.465,0.026,93.698-0.03c41.767-0.074,83.534-0.207,125.3-0.336
	c30.14-0.093,60.28-0.22,90.42-0.329C310.5,255.521,311.583,255.542,312.666,255.553z"/>
<path fill-rule="evenodd" clip-rule="evenodd" fill="#006C46" d="M0,298.639c0.219,0.056,0.566,0.044,0.638,0.18
	c1.165,2.18,3.535,2.183,5.445,2.869c1.225,0.44,2.726,0.287,4.065,0.108c0.342-0.045,0.519-1.205,0.803-1.84
	c0.324-0.725,0.683-1.435,1.027-2.151c0.563,0.36,1.109,0.75,1.695,1.069c0.373,0.204,0.796,0.327,1.209,0.441
	c0.486,0.136,1.06,0.102,1.465,0.352c1.313,0.813,2.373,1.209,3.357-0.55c0.497-0.887,1.465-0.627,1.858,0.301
	c0.777,1.832,1.293,3.031,3.916,1.81c2.125-0.99,4.88-0.609,7.35-0.888c1.795-0.202,3.178,0.39,4.383,1.747
	c0.462,0.521,1.307,0.819,2.03,0.968c1.461,0.301,1.927-0.83,1.969-1.905c0.105-2.664,0.404-2.905,2.765-1.751
	c0.194,0.095,0.424,0.117,0.749,0.202c0.426-1.703,1.338-2.111,2.787-1.062c0.18,0.13,0.608,0.105,0.816-0.021
	c1.111-0.674,2.005-1.054,2.561,0.688c0.128,0.401,1.15,0.517,1.862,0.805c0.163-0.505,0.192-0.938,0.418-1.206
	c0.292-0.347,0.757-0.794,1.118-0.768c0.37,0.026,1.02,0.593,0.999,0.885c-0.142,2.025,1.208,1.934,2.458,1.732
	c3.152-0.507,6.567-0.54,9.343-1.875c2.593-1.246,4.672,0.514,6.979-0.108c2.694-0.727,5.45-1.232,8.186-1.799
	c1.215-0.252,2.44-0.523,3.673-0.604c2.774-0.182,5.556-0.255,8.335-0.361c1.216-0.047,2.522,0.289,3.327-1.123
	c0.13-0.229,0.834-0.165,1.275-0.178c2.818-0.08,5.647-0.017,8.451-0.255c1.896-0.162,3.811-1.227,5.619-1.02
	c2.822,0.321,5.261-0.852,7.891-1.149c4.021-0.455,8.081-0.589,12.094-1.093c6.27-0.787,12.512-1.79,18.772-2.653
	c1.289-0.178,2.625-0.03,3.907-0.235c4.949-0.791,9.859-1.908,14.833-2.454c9.405-1.032,18.771-2.287,28.111-3.799
	c7.874-1.274,15.786-2.308,23.678-3.463c5.375-0.786,10.748-1.585,16.118-2.4c9.622-1.461,19.236-2.979,28.865-4.396
	c6.101-0.898,12.224-1.638,18.332-2.489c2.465-0.344,4.914-0.806,7.373-1.191c0.186-0.029,0.399,0.12,0.601,0.187
	c-2.082,0.452-4.154,0.963-6.249,1.345c-5.064,0.923-10.137,1.81-15.213,2.665c-4.464,0.752-8.946,1.399-13.405,2.173
	c-4.571,0.794-9.126,1.679-13.686,2.535c-3.891,0.73-7.775,1.501-11.67,2.208c-5.897,1.07-11.803,2.095-17.702,3.153
	c-2.942,0.527-5.875,1.111-8.819,1.628c-2.83,0.496-5.669,0.936-8.503,1.405c-0.334,0.055-0.673,0.112-0.993,0.22
	c-5.295,1.765-10.787,2.622-16.268,3.527c-2.389,0.395-4.999,0.254-7.132,1.201c-2.988,1.327-6.094,1.051-9.055,1.734
	c-2.304,0.532-5.049,0.092-6.995,2.055c-0.216,0.218-0.762,0.118-1.156,0.146c-2.17,0.156-4.674-0.32-6.432,0.611
	c-2.429,1.286-4.877,0.343-7.192,1.102c-1.751,0.573-3.506,1.176-5.305,1.549c-1.985,0.411-4.03,0.525-6.032,0.866
	c-0.957,0.163-1.864,0.596-2.813,0.83c-1.251,0.31-2.527,0.52-3.782,0.817c-1.17,0.278-2.313,0.698-3.494,0.906
	c-1.416,0.249-2.935,0.698-4.272,0.414c-1.937-0.412-3.296,1.091-4.994,1.021c-2.527-0.103-4.785,0.979-7.121,1.569
	c-2.123,0.535-4.224,0.894-6.378,1.126c-0.945,0.102-1.884,0.287-2.815,0.485c-1.241,0.264-2.476,0.563-3.707,0.873
	c-0.49,0.124-1.052,0.567-1.43,0.435c-2.573-0.903-4.516,0.683-6.663,1.513c-0.561,0.217-1.233,0.122-1.833,0.262
	c-1.354,0.315-2.722-0.562-4.18,0.474c-0.803,0.57-2.511,0.396-3.563-0.041c-1.476-0.614-1.962-0.16-2.289,1.122
	c-0.041,0.16-0.168,0.299-0.255,0.447c-0.082-0.176-0.164-0.353-0.245-0.529c-0.872,0.218-1.733,0.495-2.617,0.639
	c-1.39,0.227-2.792,0.476-4.194,0.514c-2.963,0.082-5.48,1.455-8.11,2.546c-0.602,0.25-1.33,0.293-1.997,0.276
	c-3.186-0.078-6.242,0.196-9.271,1.489c-1.458,0.623-3.371,0.13-5.068,0.262c-0.867,0.068-1.717,0.391-2.569,0.62
	c-0.271,0.073-0.59,0.376-0.775,0.3c-1.645-0.671-3.079,0.551-4.422,0.563c-2.578,0.025-4.438,1.411-6.629,2.127
	c-0.49,0.16-1.056,0.119-1.586,0.116c-0.324-0.001-0.653-0.172-0.971-0.149c-1.284,0.091-2.565,0.227-4.214,0.38
	c-0.325,1.83-2.139,1.546-3.853,1.494c-0.684-0.021-1.389-0.109-2.047,0.021c-1.179,0.231-2.331,0.604-3.777,0.995
	c-0.607-0.765-1.449-1.045-2.526,0.312c-0.323,0.406-1.459,0.105-2.197,0.255c-1.69,0.343-3.364,0.763-5.044,1.151
	C0,315.515,0,307.076,0,298.639z"/>
<path fill-rule="evenodd" clip-rule="evenodd" fill="#008653" d="M684.166,258.614c0,2.623,0,5.245,0,7.868
	c-3.279,0.227-6.555,0.513-9.836,0.667c-6.229,0.291-12.455-0.261-18.705,0.589c-4.309,0.586-8.762,0.133-13.15,0.101
	c-1.41-0.01-2.822-0.275-4.225-0.215c-1.686,0.073-3.381,0.642-5.037,0.517c-4.49-0.339-8.961,0.881-13.447,0.072
	c-0.42-0.076-0.889,0.114-1.332,0.191c-0.885,0.154-1.768,0.459-2.648,0.446c-2.98-0.044-5.959-0.222-8.939-0.298
	c-0.844-0.022-1.689,0.162-2.537,0.194c-1.305,0.05-2.611,0.054-3.916,0.069c-2.793,0.033-5.588,0.06-8.381,0.095
	c-0.111,0.001-0.244,0.023-0.326,0.088c-1.688,1.306-3.32,0.506-4.98-0.088c-0.506-0.181-1.084-0.251-1.623-0.227
	c-2.904,0.129-5.809,0.497-8.703,0.412c-3.271-0.096-6.523-0.698-9.797-0.877c-4.715-0.257-9.463,0.555-14.168-0.365
	c-0.662-0.129-1.43-0.445-1.99-0.241c-3.002,1.092-5.953,0.063-8.92-0.058c-1.641-0.066-3.273-0.288-4.914-0.38
	c-2.469-0.14-4.941-0.294-7.412-0.299c-0.904-0.002-1.811,0.406-2.715,0.627c-0.23,0.008-0.463,0.016-0.695,0.023
	c-0.451-0.006-0.904-0.012-1.355-0.017c-0.35-0.104-0.697-0.207-1.047-0.311c-0.447-0.007-0.895-0.015-1.342-0.021
	c-0.693-0.108-1.385-0.217-2.076-0.325c-0.346,0.018-0.693,0.034-1.039,0.051c-0.332-0.015-0.66-0.03-0.992-0.045
	c-0.236-0.113-0.475-0.227-0.711-0.34c-0.443-0.007-0.889-0.014-1.334-0.021c-0.459-0.007-0.918-0.015-1.379-0.021
	c-0.232,0.012-0.465,0.023-0.697,0.035c-0.34,0.008-0.68,0.015-1.02,0.022c-0.338-0.113-0.676-0.226-1.014-0.339
	c-0.229-0.022-0.459-0.045-0.689-0.066c-0.234,0.017-0.469,0.032-0.705,0.049c-0.561-0.108-1.123-0.217-1.684-0.324
	c-0.238,0.076-0.479,0.151-0.717,0.228c-2.387-0.316-4.771-0.632-7.158-0.948c-0.229-0.011-0.455-0.021-0.684-0.032
	c-0.684-0.098-1.367-0.194-2.051-0.291c-0.342-0.016-0.684-0.031-1.027-0.047c-0.699-0.055-1.4-0.11-2.102-0.166
	c-0.201-0.011-0.404-0.022-0.605-0.034c-0.475-0.015-0.947-0.029-1.422-0.044c-0.334-0.033-0.668-0.066-1-0.1
	c-0.467-0.075-0.932-0.15-1.398-0.226c-0.461,0.018-0.924,0.034-1.385,0.052c-0.318-0.016-0.637-0.031-0.957-0.048
	c-0.355-0.016-0.713-0.03-1.07-0.046c-0.217-0.037-0.436-0.075-0.654-0.112c-0.561-0.051-1.119-0.102-1.678-0.153
	c-0.584-0.05-1.166-0.101-1.75-0.151c-2.064-0.183-4.129-0.365-6.195-0.548c-0.18,0.018-0.359,0.034-0.539,0.051l0.021-0.104
	c-0.393-0.122-0.783-0.243-1.176-0.365c-0.793-0.011-1.588-0.021-2.381-0.032c-0.668-0.02-1.336-0.038-2.004-0.057
	c-0.254-0.276-0.512-0.554-0.768-0.831c1.191-0.324,2.373-0.886,3.57-0.918c1.857-0.05,3.721,0.37,5.584,0.398
	c4.33,0.068,8.66,0.022,12.99,0.022c3.061,0,6.121-0.043,9.18,0.013c2.82,0.051,5.639,0.196,8.457,0.318
	c2.322,0.101,4.645,0.318,6.967,0.319c2.408,0,4.816-0.264,7.227-0.294c4.189-0.053,8.379,0.029,12.568-0.027
	c4.26-0.058,8.518-0.244,12.779-0.319c2.934-0.052,5.871,0.017,8.807-0.015c9.502-0.101,19.002-0.221,28.504-0.338
	c9.047-0.11,18.092-0.235,27.139-0.337c2.764-0.031,5.529,0.032,8.295-0.01c5.912-0.091,11.824-0.252,17.736-0.327
	c4.074-0.052,8.15,0.044,12.225-0.041c1.332-0.027,2.648-0.554,3.984-0.613c2.361-0.106,4.734,0.057,7.096-0.045
	C670.117,259.335,677.141,258.96,684.166,258.614z"/>
<path fill-rule="evenodd" clip-rule="evenodd" fill="#006C46" d="M526.463,267.504c0.904-0.221,1.811-0.629,2.715-0.627
	c2.471,0.005,4.943,0.159,7.412,0.299c1.641,0.092,3.273,0.313,4.914,0.38c2.967,0.12,5.918,1.149,8.92,0.058
	c0.561-0.204,1.328,0.112,1.99,0.241c4.705,0.92,9.453,0.108,14.168,0.365c3.273,0.179,6.525,0.781,9.797,0.877
	c2.895,0.085,5.799-0.283,8.703-0.412c0.539-0.024,1.117,0.046,1.623,0.227c1.66,0.594,3.293,1.394,4.98,0.088
	c0.082-0.064,0.215-0.087,0.326-0.088c2.793-0.035,5.588-0.062,8.381-0.095c1.305-0.016,2.611-0.02,3.916-0.069
	c0.848-0.032,1.693-0.217,2.537-0.194c2.98,0.076,5.959,0.254,8.939,0.298c0.881,0.013,1.764-0.292,2.648-0.446
	c0.443-0.077,0.912-0.268,1.332-0.191c4.486,0.809,8.957-0.411,13.447-0.072c1.656,0.125,3.352-0.443,5.037-0.517
	c1.402-0.061,2.814,0.205,4.225,0.215c4.389,0.032,8.842,0.485,13.15-0.101c6.25-0.85,12.477-0.298,18.705-0.589
	c3.281-0.154,6.557-0.44,9.836-0.667c0,5.701,0,11.402,0,17.104c-1.764-0.038-3.537,0.04-5.285-0.135
	c-4.672-0.467-9.326-1.083-13.996-1.562c-3.154-0.324-6.328-0.457-9.482-0.783c-5.963-0.615-11.918-1.313-17.877-1.968
	c-2.531-0.278-5.064-0.54-7.598-0.806c-3.994-0.417-7.988-0.835-11.984-1.246c-3.094-0.318-6.189-0.618-9.283-0.941
	c-5.686-0.593-11.369-1.202-17.053-1.795c-2.584-0.27-5.174-0.5-7.758-0.778c-4.891-0.527-9.779-1.105-14.674-1.608
	c-3.93-0.403-7.869-0.711-11.803-1.089c-2.252-0.217-4.498-0.504-6.75-0.73c-3.152-0.317-6.307-0.608-9.459-0.911
	c-0.227-0.001-0.451-0.001-0.678-0.002c-1.826-0.228-3.654-0.454-5.482-0.682c-0.225,0-0.449-0.001-0.674-0.002
	c-1.828-0.227-3.656-0.454-5.484-0.682c-0.451-0.002-0.904-0.005-1.357-0.007C527.146,267.741,526.805,267.623,526.463,267.504z"/>
<path fill-rule="evenodd" clip-rule="evenodd" fill="#009C64" d="M684.166,258.614c-7.025,0.346-14.049,0.721-21.074,1.021
	c-2.361,0.102-4.734-0.062-7.096,0.045c-1.336,0.06-2.652,0.586-3.984,0.613c-4.074,0.085-8.15-0.011-12.225,0.041
	c-5.912,0.075-11.824,0.236-17.736,0.327c-2.766,0.042-5.531-0.021-8.295,0.01c-9.047,0.102-18.092,0.227-27.139,0.337
	c-9.502,0.117-19.002,0.237-28.504,0.338c-2.936,0.031-5.873-0.037-8.807,0.015c-4.262,0.075-8.52,0.262-12.779,0.319
	c-4.189,0.057-8.379-0.025-12.568,0.027c-2.41,0.03-4.818,0.294-7.227,0.294c-2.322-0.001-4.645-0.219-6.967-0.319
	c-2.818-0.122-5.637-0.268-8.457-0.318c-3.059-0.056-6.119-0.013-9.18-0.013c-4.33,0-8.66,0.046-12.99-0.022
	c-1.863-0.028-3.727-0.448-5.584-0.398c-1.197,0.032-2.379,0.594-3.568,0.917c-0.445-0.06-0.889-0.119-1.334-0.179
	c-0.484-1.036-1.107-0.781-1.766-0.19c-0.324-0.039-0.646-0.078-0.971-0.117c-0.342-0.344-0.684-0.688-1.025-1.031
	c0.42-0.112,0.844-0.326,1.262-0.319c1.674,0.026,3.355,0.254,5.02,0.164c4.014-0.216,8.016-0.64,12.029-0.85
	c5.666-0.298,11.338-0.496,17.01-0.705c6.729-0.247,13.457-0.48,20.186-0.681c8.461-0.252,16.924-0.492,25.387-0.679
	c3.645-0.081,7.293,0.023,10.938-0.028c2.096-0.029,4.188-0.276,6.283-0.296c2.639-0.025,5.281,0.169,7.918,0.109
	c3.611-0.082,7.219-0.342,10.828-0.477c5.309-0.197,10.617-0.332,15.924-0.534c1.959-0.075,4.055-0.787,5.84-0.297
	c3.787,1.04,7.473-0.171,11.193,0.077c0.439,0.029,0.936-0.792,1.404-1.219c3.18-0.006,6.361-0.012,9.541-0.018
	c0.357,0.318,0.77,0.943,1.059,0.892c0.604-0.108,1.143-0.576,1.707-0.896c2.158-0.004,4.314-0.007,6.473-0.011
	c0.242,0.431,0.416,1.166,0.738,1.24c1.143,0.26,2.379,0.534,3.494,0.332c0.834-0.15,1.533-1.028,2.293-1.581
	c0.449-0.001,0.898-0.001,1.348-0.002c0.5,0.327,1.004,0.938,1.502,0.935c2.643-0.016,5.285-0.166,7.924-0.327
	c0.297-0.019,0.568-0.403,0.854-0.618c0.338-0.001,0.676-0.001,1.014-0.001c1.02,0.955,6.518,0.954,7.537,0
	c7.523-0.011,15.047-0.021,22.572-0.032C684.166,255.878,684.166,257.246,684.166,258.614z"/>
<path fill-rule="evenodd" clip-rule="evenodd" fill="#050508" d="M341.473,241.377c0-0.841,0.117-1.604-0.061-2.29
	c-0.066-0.259-1.033-0.61-1.216-0.461c-1.139,0.929-1.696,0.057-2.448-0.565c-1.076-0.892-2.41-1.524-3.32-2.548
	c-0.673-0.756-1.169-1.957-1.168-2.96c0.004-1.746-0.434-2.579-2.314-2.353c-1.188,0.143-1.785-0.584-2.225-1.675
	c-0.637-1.578-0.695-3.452-2.734-4.36c-0.662-0.295-0.633-2.032-1.026-3.068c-0.272-0.719-0.763-1.351-1.089-2.053
	c-0.459-0.991-0.912-1.993-1.254-3.028c-0.153-0.464-0.032-1.018-0.033-1.531c-0.004-3-0.352-3.342-3.338-3.794
	c-0.623-0.094-1.482-0.491-1.701-0.985c-0.391-0.885,0.196-1.426,1.123-1.899c1.676-0.857,0.602-2.547,0.737-3.858
	c0.021-0.195-0.987-0.665-1.548-0.723c-2.146-0.222-2.471-0.854-2.387-2.997c0.08-2.058-0.353-4.135-0.566-6.203
	c-0.018-0.167-0.152-0.338-0.127-0.491c0.619-3.932-1.516-7.701-0.506-11.735c0.517-2.063,0.039-4.37,0.042-6.567
	c0.003-2.748,0.046-5.496,0.059-8.243c0.011-2.197,0.021-4.395-0.005-6.591c-0.013-1.064,0.24-1.824,1.384-2.249
	c0.455-0.17,0.937-0.927,0.976-1.448c0.22-2.985-0.258-5.987,0.806-8.959c0.447-1.251-0.007-2.832-0.085-4.261
	c-0.055-0.976,0.367-1.369,1.33-1.599c1.949-0.467,2.119-0.861,1.346-2.764c-0.547-1.345-0.244-2.133,1.162-2.633
	c0.416-0.148,0.741-0.789,0.926-1.273c0.15-0.399,0.062-0.903,0.025-1.356c-0.169-2.149,0.203-3.922,2.215-5.306
	c2.206-1.518,3.717-3.598,3.307-6.605c-0.154-1.137,0.612-1.98,1.773-2.154c1.043-0.154,1.173-0.739,1.297-1.637
	c0.223-1.608,0.676-3.184,0.994-4.779c0.068-0.34,0.052-0.742-0.064-1.067c-0.895-2.511-0.227-3.554,2.489-3.488
	c1.418,0.034,1.784-0.493,1.696-1.788c-0.102-1.523-0.113-2.988,2.075-3.223c0.399-0.042,0.901-1.363,0.944-2.119
	c0.201-3.506,0.15-3.509,3.77-3.51c0.514,0,1.027,0.014,1.539-0.004c2.212-0.072,2.46-0.289,2.596-2.477
	c0.074-1.211,0.527-2.008,1.805-2.305c1.314-0.306,2.089-0.988,1.697-2.578c-0.177-0.718,0.16-1.555,0.227-2.34
	c0.1-1.189,0.841-1.395,1.806-1.162c1.511,0.363,2.505,0.048,2.867-1.668c0.101-0.473,0.77-1.076,1.262-1.168
	c1.21-0.224,2.533-0.444,3.683-0.154c0.692,0.176,1.252,1.252,1.661,2.033c0.235,0.449,0.096,1.123,0.04,1.688
	c-0.114,1.148,0.271,1.616,1.515,1.613c2.447-0.007,2.144,0.342,3.06,2.597c1.109,2.728,1.094,5.573,1.646,8.331
	c0.589,2.945,0.246,6.071,0.4,9.113c0.057,1.113,0.524,2.211,0.546,3.32c0.148,7.482,1.583,14.893,1.11,22.422
	c-0.209,3.33,0.123,6.699,0.31,10.045c0.069,1.229,0.579,2.438,0.629,3.667c0.183,4.517,0.458,9.045,0.31,13.556
	c-0.124,3.755,0.03,7.438,0.648,11.135c0.171,1.025-0.239,2.133-0.23,3.201c0.092,10.305,0.197,20.609,0.34,30.913
	c0.041,2.952,0.289,5.901,0.315,8.853c0.053,5.73,0.058,11.462,0.001,17.192c-0.039,3.978-0.064,7.967-0.404,11.925
	c-0.134,1.561-1.049,3.073-1.727,4.555c-0.178,0.391-0.783,0.81-1.207,0.826c-2.475,0.093-4.953,0.071-7.431,0.082
	c-0.107,0-0.284-0.035-0.313-0.104c-0.852-1.944-2.684-1.443-4.211-1.721c-0.439-0.08-1.054-0.177-1.248-0.482
	c-1.127-1.771-3.008-1.459-4.647-1.817c-1.044-0.229-1.914-0.479-1.756-1.939c0.163-1.51-1.296-1.288-2.081-1.347
	c-1.27-0.096-2.13-0.399-3.033-1.44C343.796,241.779,342.362,241.692,341.473,241.377z"/>
<path fill-rule="evenodd" clip-rule="evenodd" fill="#48B381" d="M616.111,254.597c-0.469,0.427-0.965,1.248-1.404,1.219
	c-3.721-0.248-7.406,0.963-11.193-0.077c-1.785-0.49-3.881,0.222-5.84,0.297c-5.307,0.202-10.615,0.337-15.924,0.534
	c-3.609,0.135-7.217,0.395-10.828,0.477c-2.637,0.06-5.279-0.135-7.918-0.109c-2.096,0.02-4.188,0.267-6.283,0.296
	c-3.645,0.052-7.293-0.053-10.938,0.028c-8.463,0.187-16.926,0.427-25.387,0.679c-6.729,0.2-13.457,0.434-20.186,0.681
	c-5.672,0.209-11.344,0.407-17.01,0.705c-4.014,0.21-8.016,0.634-12.029,0.85c-1.664,0.09-3.346-0.138-5.02-0.164
	c-0.418-0.007-0.842,0.207-1.262,0.319c-0.57,0.232-1.139,0.465-1.709,0.697c-0.229-0.014-0.455-0.026-0.684-0.04
	c-0.232-0.101-0.463-0.201-0.695-0.303c-0.57-0.112-1.141-0.226-1.713-0.338c-0.117-0.237-0.234-0.474-0.352-0.71
	c-0.635-1.66-2.143-1.18-3.375-1.375c0.072-0.135,0.145-0.27,0.217-0.404c1.686-0.128,3.029-0.66,3.135-2.654
	c17.604-0.116,35.205-0.296,52.807-0.333c28.898-0.062,57.797-0.017,86.697-0.047C604.85,254.817,610.48,254.676,616.111,254.597z"
	/>
<path fill-rule="evenodd" clip-rule="evenodd" fill="#424242" d="M373.315,111.541c-0.03-5.574-0.069-11.148-0.086-16.724
	c-0.015-4.78,0.022-9.56-0.022-14.339c-0.011-1.11,0.352-1.481,1.471-1.472c6.031,0.05,12.063-0.004,18.094,0.058
	c4.43,0.045,8.858,0.211,13.286,0.323c-0.35,0.321-0.648,0.806-1.059,0.934c-1.387,0.435-2.842,0.661-4.219,1.124
	c-1.082,0.364-2.154,0.855-3.102,1.484c-0.791,0.526-1.373,1.355-2.084,2.012c-0.473,0.435-1.01,0.799-1.519,1.194
	c-4.695-0.007-9.391-0.009-14.085-0.024c-0.771-0.002-1.555-0.083-1.288,1.101c-0.005,0.462-0.011,0.925-0.017,1.386
	c-0.009,6.386-0.018,12.771-0.026,19.156c-0.505,0.297-1.011,0.593-1.886,1.107c-0.212-0.447-0.454-0.96-0.697-1.473
	c-0.191,0.055-0.383,0.111-0.574,0.167c-0.279,1.372-0.56,2.743-0.844,4.136C374.197,111.64,373.756,111.59,373.315,111.541z"/>
<path fill-rule="evenodd" clip-rule="evenodd" fill="#393939" d="M458.678,153.238c0.002,0.579,0.004,1.159,0.006,1.737
	c-1.15,0.11-1.477-0.535-1.719-1.557c-0.139-0.582-0.848-1.027-1.301-1.535c-0.117-4.903-0.234-9.806-0.352-14.708
	c-0.008-5.473,0.008-10.943-0.033-16.414c-0.025-3.531-0.135-7.061-0.205-10.591c-0.053-6.161-0.105-12.323-0.158-18.485
	c-0.027-5.891-0.055-11.78-0.082-17.671c0.451-0.037,0.906-0.061,1.357-0.113c1.43-0.17,1.869,0.477,1.859,1.874
	c-0.049,6.719-0.045,13.439,0.002,20.158c0.096,14.168,0.219,28.337,0.357,42.505c0.041,4.374,0.172,8.747,0.262,13.12
	c-0.318,0.28-0.637,0.562-0.955,0.842C458.037,152.68,458.357,152.959,458.678,153.238z"/>
<path fill-rule="evenodd" clip-rule="evenodd" fill="#4D4C4C" d="M394.075,86.136c0.509-0.396,1.046-0.76,1.519-1.194
	c0.711-0.656,1.293-1.485,2.084-2.012c0.947-0.629,2.02-1.12,3.102-1.484c1.377-0.463,2.832-0.689,4.219-1.124
	c0.41-0.128,0.709-0.612,1.059-0.934c8.08,0.021,16.16,0.042,24.242,0.062c0.711,2.019,1.406,4.043,2.15,6.051
	c0.102,0.273,0.441,0.459,0.672,0.686c-0.02,0.129-0.039,0.257-0.057,0.385c-1.645-0.047-3.289-0.123-4.934-0.139
	C416.78,86.326,405.428,86.232,394.075,86.136z"/>
<path fill-rule="evenodd" clip-rule="evenodd" fill="#6E6E6E" d="M373.563,207.304c-0.003-3.535-0.006-7.07-0.008-10.606
	c0.592-1.39,1.049-2.859,1.809-4.15c0.961-1.633,2.167-3.122,3.277-4.665c0.051-0.069,0.211-0.06,0.32-0.086
	c0.012,10.378,0.021,20.755,0.033,31.133c-0.154,0.066-0.4,0.095-0.446,0.205c-2.052,4.993-3.511,10.122-3.687,15.568
	c-0.016,0.462-0.701,0.901-1.076,1.352c-0.059-1.523-0.16-3.047-0.168-4.571c-0.031-6.123-0.033-12.246-0.046-18.369
	C373.568,211.177,373.564,209.24,373.563,207.304z"/>
<path fill-rule="evenodd" clip-rule="evenodd" fill="#A6A5A6" d="M455.074,110.171c0.07,3.53,0.18,7.06,0.205,10.591
	c0.041,5.471,0.025,10.941,0.033,16.414c-0.227-0.332-0.605-0.641-0.66-0.998c-0.697-4.666-1.199-9.365-2.053-14.001
	c-0.824-4.476-2.137-8.861-2.984-13.333c-0.963-5.078-2.453-9.979-4.281-14.792c-1.121-2.952-2.738-5.585-5.111-7.716
	c-0.707-0.635-1.375-1.312-2.061-1.969c0.16-0.17,0.32-0.338,0.48-0.507c1.32-0.754,2.639-1.509,3.959-2.263
	c0.305,0.881,0.475,1.842,0.941,2.627c1.471,2.469,3.484,4.705,4.502,7.336c2.135,5.522,3.746,11.248,5.646,16.865
	C453.914,109.088,454.602,109.594,455.074,110.171z"/>
<path fill-rule="evenodd" clip-rule="evenodd" fill="#4D4C4C" d="M373.315,111.541c0.44,0.049,0.882,0.099,1.343,0.15
	c0.284-1.393,0.564-2.764,0.844-4.136c0.191-0.056,0.383-0.112,0.574-0.167c0.243,0.513,0.485,1.025,0.697,1.473
	c0.875-0.515,1.381-0.811,1.886-1.107c0.009,10.947,0.019,21.895,0.028,32.842c-0.452-0.004-0.942,0.104-1.35-0.032
	c-1.271-0.429-1.654,0.013-1.819,1.297c-0.194,1.5-0.701,2.965-1.147,4.422c-0.066,0.22-0.536,0.316-0.819,0.471
	c-0.013-6.526-0.003-13.052-0.044-19.577C373.476,121.964,373.382,116.752,373.315,111.541z"/>
<path fill-rule="evenodd" clip-rule="evenodd" fill="#006C46" d="M304.112,266.482c0.271-0.233,0.511-0.614,0.816-0.677
	c2.633-0.537,5.279-1.016,7.919-1.519c0.223-0.042,0.451-0.1,0.651-0.2c2.478-1.258,4.884-2.684,7.444-3.735
	c1.818-0.747,3.833-1.028,5.773-1.454c2.496-0.548,5.002-1.045,7.509-1.537c1.481-0.291,2.966-0.586,4.46-0.781
	c1.535-0.199,3.086-0.26,4.623-0.438c0.184-0.021,0.324-0.397,0.484-0.609c4.332-0.005,8.663-0.01,12.994-0.015
	c-0.326,0.233-0.625,0.612-0.98,0.678c-3.209,0.591-6.436,1.086-9.639,1.697c-1.547,0.296-3.059,0.781-4.904,1.264
	c-0.361,0.508-0.965,1.358-1.569,2.209c-1.594,0.231-3.187,0.464-4.78,0.696c-0.233,0.106-0.466,0.212-0.699,0.318
	c-0.338,0.007-0.676,0.013-1.013,0.019c-0.464,0.217-0.928,0.434-1.392,0.65c-0.111,0.004-0.221,0.01-0.331,0.019
	c-0.228-0.006-0.454-0.012-0.681-0.018c-1.299,0.077-2.607,0.077-3.895,0.245c-3.496,0.457-6.982,0.984-10.473,1.484
	c-0.344,0.113-0.688,0.227-1.031,0.34c-0.911,0.113-1.822,0.228-2.734,0.341c-0.457,0.114-0.914,0.229-1.371,0.343
	c-0.227,0-0.454,0.001-0.681,0.001c-0.457,0.113-0.914,0.228-1.372,0.341c-0.454,0.002-0.908,0.003-1.362,0.005
	C306.624,266.26,305.368,266.371,304.112,266.482z"/>
<path fill-rule="evenodd" clip-rule="evenodd" fill="#9A9A9A" d="M455.074,110.171c-0.473-0.577-1.16-1.083-1.383-1.745
	c-1.9-5.617-3.512-11.343-5.646-16.865c-1.018-2.631-3.031-4.867-4.502-7.336c-0.467-0.785-0.637-1.746-0.941-2.627
	c1.381-0.861,2.764-1.723,4.146-2.584c1.832,2.58,3.729,5.119,5.471,7.759c1.027,1.554,1.807,3.271,2.697,4.913
	C454.969,97.848,455.021,104.01,455.074,110.171z"/>
<path fill-rule="evenodd" clip-rule="evenodd" fill="#575757" d="M373.552,146.753c0.283-0.154,0.753-0.251,0.819-0.471
	c0.446-1.457,0.953-2.922,1.147-4.422c0.165-1.284,0.549-1.726,1.819-1.297c0.407,0.137,0.897,0.028,1.35,0.032
	c0.055,8.437,0.108,16.874,0.162,25.312c-2.701,0.561-3.396,1.551-3.706,4.261c-0.116,1.022-1.017,1.955-1.56,2.929
	C373.573,164.315,373.563,155.534,373.552,146.753z M377.129,141.544c-0.187,0.255-0.393,0.412-0.389,0.563
	c0.006,0.153,0.219,0.3,0.34,0.45c0.164-0.158,0.382-0.292,0.465-0.484C377.58,141.992,377.329,141.788,377.129,141.544z"/>
<path fill-rule="evenodd" clip-rule="evenodd" fill="#7A7A7B" d="M373.785,236.054c0.375-0.45,1.061-0.89,1.076-1.352
	c0.176-5.446,1.635-10.575,3.687-15.568c0.046-0.11,0.292-0.139,0.446-0.205c0.031,1.021,0.088,2.042,0.09,3.063
	c0.016,9.835,0.027,19.669,0.028,29.504c0.001,1.119-0.063,2.238-0.097,3.357c-0.742-0.562-1.521-1.083-2.221-1.695
	c-1.008-0.882-1.957-1.829-2.932-2.749C373.837,245.623,373.812,240.839,373.785,236.054z"/>
<path fill-rule="evenodd" clip-rule="evenodd" fill="#5E5E5E" d="M373.584,173.097c0.543-0.974,1.443-1.906,1.56-2.929
	c0.31-2.71,1.005-3.7,3.706-4.261c0.037,7.297,0.074,14.593,0.111,21.889c-0.109,0.026-0.27,0.017-0.32,0.086
	c-1.11,1.543-2.316,3.032-3.277,4.665c-0.76,1.291-1.217,2.761-1.809,4.15c-0.114-0.411-0.332-0.824-0.326-1.234
	C373.331,188.008,373.461,180.552,373.584,173.097z"/>
<path fill-rule="evenodd" clip-rule="evenodd" fill="#424242" d="M455.664,151.884c0.453,0.508,1.162,0.953,1.301,1.535
	c0.242,1.021,0.568,1.667,1.719,1.557c0,0.221,0.002,0.441,0.004,0.662c-0.422,0.446-1.24,0.965-1.174,1.325
	c0.115,0.641,0.764,1.186,1.191,1.771c0.01,2.896,0.006,5.794,0.033,8.691c0.092,9.42,0.197,18.84,0.297,28.26
	c-1-0.349-2-0.696-3-1.045c-0.055-2.264-0.111-4.528-0.168-6.792c-0.055-3.781-0.107-7.562-0.162-11.342
	c-0.023-2.959-0.049-5.919-0.072-8.878c-0.023-3.772-0.047-7.545-0.07-11.318C455.598,154.835,455.631,153.359,455.664,151.884z"/>
<path fill-rule="evenodd" clip-rule="evenodd" fill="#005C38" d="M373.863,250.408c0.975,0.92,1.924,1.867,2.932,2.749
	c0.699,0.612,1.479,1.134,2.221,1.695c-0.232,0.319-0.467,0.639-0.699,0.958c-0.105,0.02-0.211,0.039-0.315,0.059
	c-0.112,0.013-0.225,0.024-0.337,0.037c-0.57,0.113-1.141,0.227-1.712,0.34c-0.68,0.116-1.36,0.231-2.041,0.348
	c-1.713,0.231-3.427,0.464-5.14,0.696c-1.935,0.343-3.869,0.687-5.804,1.03c-1.149,0.223-2.299,0.444-3.448,0.667
	c-0.438,0.011-0.875,0.022-1.313,0.033c-0.358,0.087-0.717,0.176-1.074,0.264c-0.225,0.011-0.449,0.021-0.673,0.031
	c-0.351,0.016-0.702,0.032-1.054,0.048c-0.212,0.011-0.424,0.021-0.637,0.031c-0.34-0.016-0.68-0.031-1.02-0.047
	c-0.24,0.1-0.481,0.199-0.722,0.299c-0.335,0.008-0.669,0.015-1.003,0.022c-0.236,0.104-0.471,0.206-0.707,0.31
	c-0.336,0.009-0.672,0.018-1.008,0.026c-0.464,0.11-0.926,0.222-1.39,0.333c-0.228,0.109-0.454,0.218-0.681,0.326
	c-0.367,0.213-0.734,0.425-1.102,0.638c-0.192-0.003-0.385-0.007-0.577-0.01c-0.233-0.201-0.468-0.402-0.702-0.604
	c-0.347,0.107-0.693,0.216-1.041,0.324c-0.336,0.007-0.674,0.013-1.01,0.019c-0.234,0.109-0.467,0.219-0.701,0.328
	c-0.335,0.009-0.67,0.018-1.006,0.026c-0.355,0.003-0.712,0.007-1.068,0.011c-0.218,0.104-0.437,0.206-0.654,0.309
	c-0.229-0.113-0.457-0.227-0.685-0.341c0.604-0.851,1.208-1.701,1.569-2.209c1.846-0.482,3.357-0.968,4.904-1.264
	c3.203-0.611,6.43-1.106,9.639-1.697c0.355-0.065,0.654-0.444,0.98-0.678c0.607-0.086,1.217-0.252,1.822-0.246
	c4.897,0.049,9.795,0.131,14.691,0.192c0.152,0.001,0.307-0.117,0.287-0.109C373.684,253.634,373.773,252.021,373.863,250.408z"/>
<path fill-rule="evenodd" clip-rule="evenodd" fill="#505050" d="M456.035,194.64c1,0.349,2,0.696,3,1.045
	c0.109,12.429,0.219,24.856,0.328,37.285c-0.326-0.535-0.662-1.064-0.975-1.607c-0.68-1.177-1.346-2.36-2.018-3.541
	c-0.035-2.041-0.082-4.083-0.102-6.125C456.188,212.678,456.113,203.659,456.035,194.64z"/>
<path fill-rule="evenodd" clip-rule="evenodd" fill="#5E5E5E" d="M456.371,227.821c0.672,1.181,1.338,2.364,2.018,3.541
	c0.313,0.543,0.648,1.072,0.975,1.607c0.031,4.926,0.037,9.852,0.102,14.776c0.031,2.486,0.164,4.972,0.25,7.457
	c-0.105,1.994-1.449,2.526-3.135,2.654c-0.033-2.674-0.08-5.347-0.096-8.02C456.439,242.499,456.408,235.16,456.371,227.821z"/>
<path fill-rule="evenodd" clip-rule="evenodd" fill="#8D8D8D" d="M454.916,91.686c-0.891-1.643-1.67-3.359-2.697-4.913
	c-1.742-2.64-3.639-5.179-5.471-7.759c2.695-1.667,5.391-3.333,8.086-4.999C454.861,79.905,454.889,85.795,454.916,91.686z"/>
<path fill-rule="evenodd" clip-rule="evenodd" fill="#0D0B19" d="M438.643,83.86c-0.16,0.169-0.32,0.337-0.48,0.507
	c-0.936,0.594-1.869,1.188-2.803,1.782c-0.32,0.188-0.643,0.375-0.963,0.563c-0.324,0.196-0.646,0.392-0.971,0.589
	c-0.111-0.029-0.225-0.059-0.338-0.088c-0.008-0.213-0.016-0.428-0.023-0.643c0.018-0.128,0.037-0.256,0.055-0.385
	c0.318-2.268,0.637-4.535,0.955-6.803c0.111-0.004,0.225-0.01,0.336-0.012c3.51-0.044,3.5-0.043,3.816,3.452
	C438.258,83.179,438.498,83.516,438.643,83.86z"/>
<path fill-rule="evenodd" clip-rule="evenodd" fill="#393939" d="M434.074,79.383c-0.318,2.268-0.637,4.535-0.955,6.803
	c-0.229-0.227-0.568-0.412-0.67-0.686c-0.744-2.008-1.439-4.032-2.15-6.051C431.557,79.428,432.814,79.406,434.074,79.383z"/>
<path fill-rule="evenodd" clip-rule="evenodd" fill="#48B381" d="M641.416,254.556c-0.76,0.553-1.459,1.431-2.293,1.581
	c-1.115,0.202-2.352-0.072-3.494-0.332c-0.322-0.074-0.496-0.81-0.738-1.24C637.066,254.562,639.24,254.559,641.416,254.556z"/>
<path fill-rule="evenodd" clip-rule="evenodd" fill="#48B381" d="M653.043,254.543c-0.285,0.215-0.557,0.6-0.854,0.618
	c-2.639,0.161-5.281,0.312-7.924,0.327c-0.498,0.003-1.002-0.607-1.502-0.935C646.189,254.55,649.615,254.546,653.043,254.543z"/>
<path fill-rule="evenodd" clip-rule="evenodd" fill="#48B381" d="M661.594,254.542c-1.02,0.954-6.518,0.955-7.537,0
	C656.568,254.542,659.082,254.542,661.594,254.542z"/>
<path fill-rule="evenodd" clip-rule="evenodd" fill="#575757" d="M373.563,207.304c0.002,1.937,0.006,3.873,0.009,5.81
	C373.568,211.177,373.564,209.24,373.563,207.304z"/>
<path fill-rule="evenodd" clip-rule="evenodd" fill="#393939" d="M458.705,158.733c-0.428-0.585-1.076-1.13-1.191-1.771
	c-0.066-0.36,0.752-0.879,1.174-1.325C458.691,156.669,458.697,157.701,458.705,158.733z"/>
<path fill-rule="evenodd" clip-rule="evenodd" fill="#48B381" d="M628.418,254.575c-0.564,0.319-1.104,0.787-1.707,0.896
	c-0.289,0.052-0.701-0.573-1.059-0.892C626.574,254.578,627.496,254.577,628.418,254.575z"/>
<path fill-rule="evenodd" clip-rule="evenodd" fill="#424242" d="M458.678,153.238c-0.32-0.279-0.641-0.559-0.961-0.838
	c0.318-0.28,0.637-0.562,0.955-0.842C458.674,152.118,458.676,152.679,458.678,153.238z"/>
<path fill-rule="evenodd" clip-rule="evenodd" fill="#009C64" d="M334.215,255.534c-0.567,1.08-1.138,1.077-1.711,0.004
	C333.074,255.537,333.645,255.535,334.215,255.534z"/>
<path fill-rule="evenodd" clip-rule="evenodd" fill="#575757" d="M90.084,334.889c0.412,0.638,0.864,1.028,0.823,1.356
	c-0.046,0.369-0.512,0.914-0.844,0.952c-0.325,0.037-1.043-0.538-1.005-0.724C89.155,336.009,89.582,335.612,90.084,334.889z"/>
<path fill-rule="evenodd" clip-rule="evenodd" fill="#575757" d="M109.172,330.253c0.25,0.398,0.563,0.688,0.509,0.862
	c-0.078,0.252-0.422,0.422-0.653,0.627c-0.182-0.224-0.512-0.451-0.504-0.667C108.532,330.845,108.859,330.625,109.172,330.253z"/>
<path fill-rule="evenodd" clip-rule="evenodd" fill="#575757" d="M136.978,317.852c-0.159-0.222-0.345-0.39-0.314-0.457
	c0.085-0.183,0.261-0.322,0.401-0.479c0.125,0.148,0.356,0.303,0.347,0.441C137.401,317.509,137.17,317.646,136.978,317.852z"/>
<path fill-rule="evenodd" clip-rule="evenodd" fill="#6E6E6E" d="M323.953,265.457c-0.343,0.228-0.686,0.454-1.029,0.682
	C323.268,265.911,323.61,265.685,323.953,265.457z"/>
<path fill-rule="evenodd" clip-rule="evenodd" fill="#505050" d="M296.928,267.511c1.026-0.115,2.053-0.229,3.079-0.344
	C298.98,267.281,297.954,267.396,296.928,267.511z"/>
<path fill-rule="evenodd" clip-rule="evenodd" fill="#505050" d="M294.875,268.189c0.457-0.227,0.914-0.452,1.372-0.679
	C295.789,267.737,295.332,267.963,294.875,268.189z"/>
<path fill-rule="evenodd" clip-rule="evenodd" fill="#767576" d="M491.918,264.42c-0.467-0.075-0.932-0.151-1.398-0.226
	C490.986,264.27,491.451,264.345,491.918,264.42z"/>
<path fill-rule="evenodd" clip-rule="evenodd" fill="#9A9A9A" d="M476.313,263.134c-0.393-0.122-0.783-0.243-1.176-0.365
	C475.529,262.891,475.92,263.012,476.313,263.134z"/>
<path fill-rule="evenodd" clip-rule="evenodd" fill="#5E5E5E" d="M500.809,265.134c-0.229-0.011-0.455-0.021-0.684-0.032
	C500.354,265.112,500.58,265.123,500.809,265.134z"/>
<path fill-rule="evenodd" clip-rule="evenodd" fill="#575757" d="M508.684,265.854c-0.238,0.076-0.477,0.152-0.717,0.228
	C508.205,266.006,508.445,265.931,508.684,265.854z"/>
<path fill-rule="evenodd" clip-rule="evenodd" fill="#696969" d="M569.225,274.693c-0.342-0.113-0.686-0.227-1.027-0.341
	C568.539,274.467,568.883,274.58,569.225,274.693z"/>
<path fill-rule="evenodd" clip-rule="evenodd" fill="#BEBDBD" d="M456.371,227.821c0.037,7.339,0.068,14.678,0.113,22.017
	c0.016,2.673,0.063,5.346,0.096,8.02c-0.072,0.135-0.145,0.27-0.217,0.404c-0.055,0.087-0.07,0.181-0.051,0.281
	c-0.213,0.001-0.424,0.003-0.637,0.003c-0.498-0.214-0.975-0.508-1.492-0.629c-2.252-0.528-4.514-1.006-6.771-1.502
	c0.332-0.188,0.703-0.583,0.988-0.528c1.604,0.308,2.891-0.402,3.621-1.903c1.26-2.592,1.277-5.365,1.211-8.115
	c-0.143-5.836-0.367-11.673-0.693-17.501c-0.168-2.985-0.635-5.953-0.949-8.931c-0.242-2.291-0.555-4.58-0.658-6.879
	c-0.135-2.992-0.029-5.996-0.148-8.99c-0.125-3.163-0.402-6.32-0.6-9.481c-0.109-1.748-0.402-3.521-0.223-5.241
	c0.197-1.878,0.682-3.682-0.992-5.108c0.916-0.413,1.719-0.777,2.523-1.141c-0.063-0.203-0.123-0.406-0.184-0.609
	c-0.605,0-1.213-0.042-1.813,0.009c-1.197,0.102-1.521-0.484-1.307-1.549c1.41,0.229,2.822,0.459,4.232,0.688
	c0.377,0.308,0.959,0.543,1.094,0.934c0.566,1.625,0.965,3.306,1.504,4.94c0.111,0.336,0.557,0.563,0.848,0.839
	c0.057,2.264,0.113,4.528,0.168,6.792c0.078,9.02,0.152,18.038,0.234,27.057C456.289,223.738,456.336,225.78,456.371,227.821z"/>
<path fill-rule="evenodd" clip-rule="evenodd" fill="#646464" d="M447.412,256.415c2.258,0.496,4.52,0.974,6.771,1.502
	c0.518,0.121,0.994,0.415,1.492,0.629c-0.961,0-1.922,0-2.881,0c-0.02,0.105-0.039,0.21-0.057,0.315
	c2.449,0.495,4.9,0.99,7.352,1.485c0.572,0.112,1.143,0.226,1.715,0.338c0.008,0.207,0.018,0.415,0.027,0.623
	c-2.27-0.368-4.539-0.735-6.807-1.103c-6.832-1.654-13.662-3.309-20.645-4.999c0.119-0.496,0.246-1.021,0.373-1.547
	c0.125,0.026,0.25,0.053,0.375,0.079c0.111,0.008,0.225,0.016,0.338,0.023c0.441,0.093,0.881,0.186,1.322,0.279
	c1.041,0.161,2.082,0.322,3.123,0.483c1.025,0.232,2.049,0.465,3.072,0.697C444.461,255.619,445.936,256.018,447.412,256.415z
	 M451.418,258.184c-0.092-0.039-0.203-0.128-0.271-0.103c-0.064,0.024-0.086,0.168-0.125,0.259c0.092,0.039,0.201,0.127,0.271,0.102
	C451.357,258.419,451.379,258.275,451.418,258.184z M449.967,257.769c-0.084-0.007-0.168-0.015-0.252-0.021
	c0.039,0.032,0.076,0.087,0.117,0.091C449.875,257.842,449.922,257.795,449.967,257.769z"/>
<path fill-rule="evenodd" clip-rule="evenodd" fill="#454545" d="M460.09,260.347c-2.451-0.495-4.902-0.99-7.352-1.485
	c0.018-0.105,0.037-0.21,0.057-0.315c0.959,0,1.92,0,2.881,0c0.213,0,0.424-0.002,0.637-0.003c1.143,0.364,2.285,0.729,3.426,1.094
	C459.855,259.873,459.973,260.109,460.09,260.347z"/>
<path fill-rule="evenodd" clip-rule="evenodd" fill="#646464" d="M459.738,259.637c-1.141-0.364-2.283-0.729-3.426-1.094
	c-0.02-0.101-0.004-0.194,0.051-0.281C457.596,258.457,459.104,257.977,459.738,259.637z"/>
<path fill-rule="evenodd" clip-rule="evenodd" fill="#FFFFFF" d="M434.754,253.659c-0.127,0.525-0.254,1.051-0.373,1.547
	c6.982,1.69,13.813,3.345,20.645,4.999c-0.604,0.708-1.08,1.818-1.83,2.051c-2.521,0.781-5.115,1.438-7.729,1.78
	c-2.334,0.307-4.73,0.076-7.096,0.188c-2.373,0.113-4.746,0.551-7.113,0.509c-6.758-0.119-13.525-0.221-20.263-0.693
	c-5.512-0.387-11.01-1.144-16.468-2.025c-4.282-0.691-8.517-1.738-12.726-2.812c-1.519-0.387-3.299-0.858-3.463-2.99
	c-0.008-0.134-0.015-0.269-0.021-0.402c0.232-0.319,0.467-0.639,0.699-0.958c0.033-1.119,0.098-2.238,0.097-3.357
	c-0.001-9.835-0.013-19.669-0.028-29.504c-0.002-1.021-0.059-2.041-0.09-3.063c-0.012-10.378-0.021-20.755-0.033-31.133
	c-0.037-7.296-0.074-14.592-0.111-21.889c-0.054-8.438-0.107-16.875-0.162-25.312c-0.01-10.947-0.02-21.895-0.028-32.842
	c0.009-6.385,0.018-12.771,0.026-19.156c0.785-0.07,1.57-0.209,2.354-0.205c15.494,0.1,30.988,0.22,46.481,0.323
	c3.723,0.024,3.682,0.006,3.723,3.704c0.027,2.312,0.201,4.621,0.309,6.931c0.045,2.243,0.09,4.485,0.135,6.728
	c-0.039,0.072-0.047,0.145-0.021,0.223c-0.094,0.652-0.273,1.305-0.27,1.957c0.096,15.92,0.211,31.839,0.324,47.759
	c0.02,2.838,0.047,5.677,0.07,8.515c0.107,14.388,0.201,28.774,0.328,43.162c0.045,5.001,0.17,10.001,0.258,15.002
	c-0.059,4.239-0.178,8.479-0.164,12.718c0.02,6.022,0.131,12.045,0.217,18.067c0.008,0.48,0.137,0.959,0.209,1.438
	c0.186-0.016,0.371-0.031,0.557-0.047c0-7.609,0-15.219,0-22.827c0.121-0.015,0.242-0.029,0.361-0.043
	c0.184,0.43,0.367,0.859,0.551,1.29c-0.002,6.236-0.018,12.474,0.025,18.711c0.004,0.493,0.416,0.983,0.641,1.475l0.01,0.02
	C434.734,253.544,434.723,253.598,434.754,253.659z"/>
<path fill-rule="evenodd" clip-rule="evenodd" fill="#F5F4F5" d="M433.064,86.57c0.008,0.215,0.016,0.43,0.023,0.643
	c0.004,3.225,0.041,6.448-0.023,9.67c-0.012,0.562-0.457,1.113-0.703,1.67c-0.113-0.117-0.227-0.236-0.34-0.355
	c0-3.506,0-7.014,0-10.504c-2.381,0-4.6,0.01-6.818-0.001c-13.169-0.065-26.337-0.124-39.507-0.216
	c-2.332-0.016-4.663-0.173-6.994-0.265c-0.267-1.184,0.517-1.103,1.288-1.101c4.694,0.016,9.39,0.018,14.085,0.024
	c11.353,0.097,22.705,0.19,34.056,0.296C429.775,86.447,431.42,86.523,433.064,86.57z"/>
<path fill-rule="evenodd" clip-rule="evenodd" fill="#8D8D8D" d="M378.702,87.212c2.331,0.092,4.662,0.249,6.994,0.265
	c13.169,0.092,26.337,0.15,39.507,0.216c2.219,0.011,4.438,0.001,6.818,0.001c0,3.49,0,6.998,0,10.504
	c-0.156,0.385-0.313,0.77-0.469,1.153c-0.107-2.31-0.281-4.619-0.309-6.931c-0.041-3.698,0-3.68-3.723-3.704
	c-15.494-0.104-30.988-0.224-46.481-0.323c-0.784-0.004-1.569,0.135-2.354,0.205C378.691,88.137,378.697,87.674,378.702,87.212z"/>
<path fill-rule="evenodd" clip-rule="evenodd" fill="#AFAFAF" d="M435.359,86.149c0.934-0.595,1.867-1.188,2.803-1.782
	c0.686,0.657,1.354,1.334,2.061,1.969c2.373,2.131,3.99,4.764,5.111,7.716c1.828,4.813,3.318,9.714,4.281,14.792
	c0.848,4.472,2.16,8.857,2.984,13.333c0.854,4.636,1.355,9.335,2.053,14.001c0.055,0.357,0.434,0.666,0.66,0.998
	c0.117,4.902,0.234,9.805,0.352,14.708c-0.033,1.476-0.066,2.951-0.102,4.427c-0.498,0.396-1.049,0.743-1.482,1.201
	c-0.609,0.646-1.131,1.374-1.691,2.066c-0.072-0.006-0.123-0.042-0.152-0.109c0.004-0.456-0.07-0.928,0.023-1.365
	c1.082-5.053,0.549-10.139,0.178-15.192c-0.311-4.224-1.086-8.411-1.545-12.626c-0.936-8.561-2.479-17.008-4.559-25.357
	c-1.184-4.751-2.723-9.361-5.063-13.699C439.922,88.73,437.91,87.168,435.359,86.149z"/>
<path fill-rule="evenodd" clip-rule="evenodd" fill="#575757" d="M316.432,264.778c-0.344,0.113-0.688,0.227-1.031,0.34
	C315.744,265.005,316.088,264.892,316.432,264.778z"/>
<path fill-rule="evenodd" clip-rule="evenodd" fill="#5E5E5E" d="M334.914,262.061c-0.233,0.106-0.466,0.212-0.699,0.318
	C334.448,262.272,334.681,262.167,334.914,262.061z"/>
<path fill-rule="evenodd" clip-rule="evenodd" fill="#4D4C4C" d="M377.129,141.544c0.2,0.244,0.451,0.448,0.416,0.529
	c-0.083,0.192-0.301,0.326-0.465,0.484c-0.121-0.15-0.334-0.297-0.34-0.45C376.736,141.956,376.942,141.799,377.129,141.544z"/>
<path fill-rule="evenodd" clip-rule="evenodd" fill="#B7B7B6" d="M455.633,167.628c0.023,2.959,0.049,5.919,0.072,8.878
	c-0.928,0.576-1.854,1.152-2.781,1.729c-0.068-0.888-0.199-1.774-0.195-2.662c0.01-3.129,0.174-6.262,0.059-9.386
	c-0.055-1.49-0.605-2.962-0.932-4.442c0.105-0.12,0.211-0.239,0.316-0.36c1.912,0.906,1.748,2.94,2.461,4.503
	C454.91,166.493,455.295,167.049,455.633,167.628z"/>
<path fill-rule="evenodd" clip-rule="evenodd" fill="#9A9A9A" d="M452.924,178.234c0.928-0.576,1.854-1.152,2.781-1.729
	c0.055,3.78,0.107,7.561,0.162,11.342c-0.291-0.276-0.736-0.503-0.848-0.839c-0.539-1.635-0.938-3.315-1.504-4.94
	c-0.135-0.391-0.717-0.626-1.094-0.933c0.016-0.688,0.031-1.376,0.049-2.063C452.621,178.793,452.773,178.514,452.924,178.234z"/>
<path fill-rule="evenodd" clip-rule="evenodd" fill="#9A9A9A" d="M455.633,167.628c-0.338-0.579-0.723-1.135-1-1.741
	c-0.713-1.563-0.549-3.597-2.461-4.502c0.072-0.603,0.145-1.204,0.217-1.807c0.561-0.692,1.082-1.421,1.691-2.066
	c0.434-0.458,0.984-0.805,1.482-1.201C455.586,160.083,455.609,163.855,455.633,167.628z"/>
<path fill-rule="evenodd" clip-rule="evenodd" fill="#696969" d="M352.025,259.669c-0.236,0.104-0.471,0.206-0.707,0.31
	C351.555,259.875,351.789,259.772,352.025,259.669z"/>
<path fill-rule="evenodd" clip-rule="evenodd" fill="#D7D7D7" d="M378.338,256.213c-0.112-0.115-0.225-0.229-0.337-0.344
	c0.104-0.02,0.21-0.039,0.315-0.059C378.323,255.944,378.33,256.079,378.338,256.213z"/>
<path fill-rule="evenodd" clip-rule="evenodd" fill="#BEBDBD" d="M433.426,87.301c0.324-0.197,0.646-0.393,0.971-0.589
	c0.154,0.288,0.234,0.7,0.477,0.847c2.543,1.541,4.357,3.828,5.299,6.496c1.842,5.227,3.535,10.536,4.801,15.926
	c1.16,4.944,1.719,10.033,2.457,15.07c0.434,2.965,0.744,5.949,1.031,8.933c0.293,3.044,0.48,6.097,0.729,9.145
	c0.439,5.415,0.889,10.829,1.332,16.243c-0.799,0.123-1.596,0.245-2.395,0.368c-0.34-1.689-0.842-3.364-0.99-5.07
	c-0.529-6.142-0.904-12.296-1.408-18.44c-0.408-4.957-0.66-9.947-1.445-14.848c-1.125-7.019-2.492-14.01-4.107-20.932
	c-0.926-3.958-2.402-7.83-5.221-10.957c-0.369-0.41-0.998-0.588-1.506-0.873C433.441,88.18,433.434,87.74,433.426,87.301z"/>
<path fill-rule="evenodd" clip-rule="evenodd" fill="#B7B7B6" d="M450.521,159.371c-0.443-5.414-0.893-10.828-1.332-16.243
	c-0.248-3.048-0.436-6.101-0.729-9.145c-0.287-2.983-0.598-5.968-1.031-8.933c-0.738-5.037-1.297-10.126-2.457-15.07
	c-1.266-5.39-2.959-10.699-4.801-15.926c-0.941-2.668-2.756-4.955-5.299-6.496c-0.242-0.146-0.322-0.559-0.477-0.847
	c0.32-0.188,0.643-0.375,0.963-0.563c2.551,1.019,4.563,2.581,5.912,5.079c2.34,4.338,3.879,8.948,5.063,13.699
	c2.08,8.35,3.623,16.797,4.559,25.357c0.459,4.215,1.234,8.402,1.545,12.626c0.371,5.054,0.904,10.14-0.178,15.192
	c-0.094,0.438-0.02,0.909-0.023,1.364C451.664,159.437,451.094,159.403,450.521,159.371z"/>
<path fill-rule="evenodd" clip-rule="evenodd" fill="#AFAFAF" d="M433.426,87.301c0.008,0.439,0.016,0.879,0.023,1.318
	c0.098,1.015,0.197,2.029,0.295,3.044c-0.109,0.592-0.287,1.181-0.314,1.776c-0.098,2.085-0.145,4.172-0.209,6.258
	c-0.768,1.044-0.768,4.188-0.002,5.328c0.063,0.439,0.178,0.878,0.178,1.316c0.004,4.744-0.004,9.489-0.029,14.234
	c-0.002,0.49-0.148,0.979-0.229,1.469c-0.014-4.77-0.006-9.539-0.072-14.307c-0.008-0.547-0.438-1.086-0.67-1.629l-0.035-0.156
	c0-2.467,0-4.934,0-7.4c0.246-0.557,0.691-1.108,0.703-1.67c0.064-3.222,0.027-6.445,0.023-9.67
	C433.201,87.242,433.314,87.271,433.426,87.301z"/>
<path fill-rule="evenodd" clip-rule="evenodd" fill="#6E6E6E" d="M557.938,273.668c0.455,0.113,0.912,0.228,1.367,0.341
	C558.85,273.896,558.393,273.781,557.938,273.668z"/>
<path fill-rule="evenodd" clip-rule="evenodd" fill="#6E6E6E" d="M556.225,273.327c0.344,0.112,0.686,0.226,1.027,0.338
	C556.91,273.553,556.568,273.439,556.225,273.327z"/>
<path fill-rule="evenodd" clip-rule="evenodd" fill="#6E6E6E" d="M562.725,274.353c0.229,0.113,0.457,0.227,0.686,0.34
	C563.182,274.579,562.953,274.466,562.725,274.353z"/>
<path fill-rule="evenodd" clip-rule="evenodd" fill="#CBCACA" d="M465.242,261.976c-0.24-0.067-0.48-0.134-0.723-0.201
	C464.762,261.842,465.002,261.909,465.242,261.976z"/>
<path fill-rule="evenodd" clip-rule="evenodd" fill="#CBCACA" d="M433.744,91.662c-0.098-1.014-0.197-2.028-0.295-3.043
	c0.508,0.285,1.137,0.463,1.506,0.873c2.818,3.127,4.295,6.999,5.221,10.957c1.615,6.922,2.982,13.913,4.107,20.932
	c0.785,4.9,1.037,9.891,1.445,14.848c0.504,6.145,0.879,12.299,1.408,18.44c0.148,1.706,0.65,3.381,0.99,5.07
	c-0.547,1.099-1.42,2.152-1.578,3.305c-0.416,3.025-0.721,6.097-0.684,9.145c0.027,2.437,0.621,4.865,0.965,7.298
	c-0.025,0.334-0.049,0.668-0.074,1.001c0.338-0.08,0.676-0.161,1.014-0.242c0.141,0.067,0.279,0.134,0.42,0.201
	c-0.215,1.064,0.109,1.65,1.307,1.549c0.6-0.051,1.207-0.009,1.813-0.009c0.061,0.203,0.121,0.406,0.184,0.609
	c-0.805,0.363-1.607,0.728-2.523,1.141c1.674,1.427,1.189,3.23,0.992,5.108c-0.18,1.72,0.113,3.493,0.223,5.241
	c0.197,3.161,0.475,6.318,0.6,9.481c0.119,2.994,0.014,5.998,0.148,8.99c0.104,2.299,0.416,4.588,0.658,6.879
	c0.314,2.978,0.781,5.945,0.949,8.931c0.326,5.828,0.551,11.665,0.693,17.501c0.066,2.75,0.049,5.523-1.211,8.115
	c-0.73,1.501-2.018,2.211-3.621,1.903c-0.285-0.055-0.656,0.34-0.988,0.528c-1.477-0.397-2.951-0.796-4.428-1.193
	c0.418-0.124,0.859-0.405,1.248-0.344c1.674,0.262,2.385-0.688,2.814-2.061c0.152-0.488,0.297-0.98,0.406-1.479
	c1.502-6.835,0.447-13.709,0.168-20.55c-0.227-5.531-1.047-11.037-1.523-16.561c-0.16-1.84,0.002-3.706-0.105-5.553
	c-0.131-2.201-0.457-4.392-0.586-6.593c-0.178-3.033-0.254-6.073-0.365-9.11c-0.025-0.666-0.002-1.334-0.016-2.001
	c-0.045-1.963-0.016-3.933-0.166-5.888c-0.205-2.652-0.936-5.326-0.711-7.928c0.17-1.946,0.137-3.872,0.227-5.806
	c0.066-1.431,0.387-2.865,0.322-4.285c-0.098-2.14-0.537-4.262-0.645-6.401c-0.291-5.766-0.461-11.537-0.721-17.304
	c-0.201-4.462-0.293-8.938-0.738-13.378c-0.631-6.305-1.523-12.582-2.342-18.867c-0.84-6.439-2.313-12.717-5.074-18.632
	c-0.166-0.356-0.711-0.537-1.078-0.8C433.98,91.678,433.863,91.67,433.744,91.662z"/>
<path fill-rule="evenodd" clip-rule="evenodd" fill="#424242" d="M448.189,180.446c-0.141-0.067-0.279-0.134-0.422-0.196
	c-0.314-0.251-0.627-0.507-0.938-0.764c-0.344-2.433-0.938-4.861-0.965-7.298c-0.037-3.048,0.268-6.119,0.684-9.145
	c0.158-1.152,1.031-2.206,1.578-3.305c0.799-0.123,1.596-0.245,2.395-0.368c0.572,0.032,1.143,0.065,1.715,0.097
	c0.029,0.068,0.08,0.104,0.152,0.11c-0.072,0.603-0.145,1.204-0.217,1.807c-0.105,0.12-0.211,0.239-0.316,0.359
	c-0.285,0.003-0.578,0.051-0.852,0c-2.27-0.42-2.729-0.189-3.141,2.005c-0.84,4.467-0.781,8.936,0.096,13.405
	c0.281,1.435,0.955,2.131,2.441,1.904c0.189-0.01,0.379-0.021,0.566-0.03c0.502,0.015,1.002,0.029,1.504,0.044
	c-0.018,0.688-0.033,1.376-0.049,2.063C451.012,180.905,449.6,180.676,448.189,180.446z"/>
<path fill-rule="evenodd" clip-rule="evenodd" fill="#EBEAEA" d="M433.139,122.044c0.08-0.489,0.227-0.978,0.229-1.468
	c0.025-4.745,0.033-9.49,0.029-14.234c0-0.438-0.115-0.877-0.178-1.316c0.049-1.029,0.098-2.061,0.146-3.09
	c1.494-0.201,1.855,0.878,2.063,1.959c0.225,1.164,0.318,2.359,0.398,3.545c0.463,6.957,1.168,13.911,1.297,20.875
	c0.215,11.626,0.051,23.259,0.063,34.889c0.004,3.777-0.008,7.557,0.105,11.331c0.117,3.945,0.445,7.884,0.559,11.829
	c0.176,6.118,0.154,12.243,0.396,18.358c0.184,4.697,0.686,9.381,0.969,14.075c0.285,4.702,0.455,9.41,0.711,14.113
	c0.111,2.037,0.389,4.066,0.455,6.103c0.117,3.621,0.143,7.245,0.174,10.869c0.004,0.317-0.27,0.628-0.33,0.958
	c-0.359,1.92-2.213,2.22-3.436,3.201c-0.441-0.094-0.881-0.187-1.322-0.279c0.119-0.297,0.201-0.617,0.365-0.887
	c0.436-0.715,1.258-1.387,1.305-2.115c0.23-3.663,0.482-7.349,0.297-11.005c-0.143-2.81-0.922-5.587-1.422-8.411
	c-0.67,0.243-1.135,0.412-1.6,0.582c-0.008-2.813-0.016-5.626-0.023-8.439c-0.1-6.541-0.199-13.082-0.299-19.622
	c0.002-10.761,0.014-21.521-0.023-32.282c-0.002-0.622-0.396-1.243-0.609-1.865c0.012-1.434,0.021-2.867,0.033-4.301
	c0.084-0.957,0.24-1.915,0.236-2.872c-0.012-3.703-0.092-7.405-0.111-11.108c-0.037-7.92-0.053-15.84-0.078-23.76
	C433.404,125.799,433.271,123.921,433.139,122.044z"/>
<path fill-rule="evenodd" clip-rule="evenodd" fill="#E0E0E0" d="M436.789,254.041c1.223-0.981,3.076-1.281,3.436-3.201
	c0.061-0.33,0.334-0.641,0.33-0.958c-0.031-3.624-0.057-7.248-0.174-10.869c-0.066-2.036-0.344-4.065-0.455-6.103
	c-0.256-4.703-0.426-9.411-0.711-14.113c-0.283-4.694-0.785-9.378-0.969-14.075c-0.242-6.115-0.221-12.24-0.396-18.358
	c-0.113-3.945-0.441-7.884-0.559-11.829c-0.113-3.774-0.102-7.554-0.105-11.331c-0.012-11.63,0.152-23.263-0.063-34.889
	c-0.129-6.964-0.834-13.918-1.297-20.875c-0.08-1.186-0.174-2.381-0.398-3.545c-0.207-1.081-0.568-2.16-2.063-1.959
	c-0.049-0.746-0.096-1.492-0.145-2.238c0.064-2.086,0.111-4.173,0.209-6.258c0.027-0.596,0.205-1.185,0.314-1.776
	c0.119,0.007,0.236,0.015,0.355,0.021c0.35,1.299,0.645,2.615,1.055,3.895c2.207,6.893,3.264,14.021,4.012,21.172
	c0.717,6.861,1.102,13.765,1.398,20.66c0.283,6.622,0.277,13.256,0.371,19.885c0.039,2.708-0.027,5.416,0.014,8.124
	c0.092,5.798,0.227,11.596,0.334,17.395c0.043,2.253,0.008,4.508,0.102,6.759c0.285,6.687,0.611,13.371,0.934,20.056
	c0.039,0.789,0.176,1.573,0.238,2.361c0.256,3.161,0.531,6.319,0.736,9.483c0.188,2.865,0.279,5.735,0.434,8.603
	c0.092,1.697,0.275,3.392,0.32,5.089c0.131,4.917,0.336,9.836,0.262,14.75c-0.043,2.909-1.039,3.74-3.988,4.317
	c-0.15,0.029-0.271,0.192-0.408,0.293C438.871,254.363,437.83,254.202,436.789,254.041z"/>
<path fill-rule="evenodd" clip-rule="evenodd" fill="#D7D7D7" d="M439.912,254.524c0.137-0.101,0.258-0.264,0.408-0.293
	c2.949-0.577,3.945-1.408,3.988-4.317c0.074-4.914-0.131-9.833-0.262-14.75c-0.045-1.697-0.229-3.392-0.32-5.089
	c-0.154-2.867-0.246-5.737-0.434-8.603c-0.205-3.164-0.48-6.322-0.736-9.483c-0.063-0.788-0.199-1.572-0.238-2.361
	c-0.322-6.685-0.648-13.369-0.934-20.056c-0.094-2.251-0.059-4.506-0.102-6.759c-0.107-5.799-0.242-11.597-0.334-17.395
	c-0.041-2.708,0.025-5.416-0.014-8.124c-0.094-6.629-0.088-13.263-0.371-19.885c-0.297-6.896-0.682-13.799-1.398-20.66
	c-0.748-7.15-1.805-14.279-4.012-21.172c-0.41-1.279-0.705-2.596-1.055-3.895c0.367,0.263,0.912,0.443,1.078,0.8
	c2.762,5.915,4.234,12.192,5.074,18.632c0.818,6.285,1.711,12.563,2.342,18.867c0.445,4.439,0.537,8.916,0.738,13.378
	c0.26,5.767,0.43,11.538,0.721,17.304c0.107,2.14,0.547,4.262,0.645,6.401c0.064,1.42-0.256,2.854-0.322,4.285
	c-0.09,1.934-0.057,3.859-0.227,5.806c-0.225,2.602,0.506,5.275,0.711,7.928c0.15,1.955,0.121,3.925,0.166,5.888
	c0.014,0.667-0.01,1.335,0.016,2.001c0.111,3.037,0.188,6.077,0.365,9.11c0.129,2.201,0.455,4.392,0.586,6.593
	c0.107,1.847-0.055,3.713,0.105,5.553c0.477,5.523,1.297,11.029,1.523,16.561c0.279,6.841,1.334,13.715-0.168,20.55
	c-0.109,0.498-0.254,0.99-0.406,1.479c-0.43,1.372-1.141,2.322-2.814,2.061c-0.389-0.062-0.83,0.22-1.248,0.344
	C441.961,254.989,440.938,254.757,439.912,254.524z"/>
<path fill-rule="evenodd" clip-rule="evenodd" fill="#F5F4F5" d="M434.412,231.926c0.465-0.17,0.93-0.339,1.6-0.582
	c0.5,2.824,1.279,5.602,1.422,8.411c0.186,3.656-0.066,7.342-0.297,11.005c-0.047,0.729-0.869,1.4-1.305,2.115
	c-0.164,0.27-0.246,0.59-0.365,0.887c-0.113-0.008-0.227-0.016-0.338-0.023c-0.115-0.08-0.23-0.161-0.346-0.241l-0.01-0.02
	c-0.111-0.951-0.311-1.903-0.318-2.856c-0.047-5.803-0.051-11.605-0.068-17.408C434.395,232.784,434.402,232.354,434.412,231.926z"
	/>
<path fill-rule="evenodd" clip-rule="evenodd" fill="#454545" d="M451.418,258.185c-0.039,0.091-0.061,0.234-0.125,0.257
	c-0.07,0.025-0.18-0.063-0.271-0.102c0.039-0.091,0.061-0.234,0.125-0.259C451.215,258.056,451.326,258.145,451.418,258.185z"/>
<path fill-rule="evenodd" clip-rule="evenodd" fill="#454545" d="M449.967,257.77c-0.045,0.025-0.092,0.072-0.135,0.068
	c-0.041-0.004-0.078-0.059-0.117-0.091C449.799,257.754,449.883,257.762,449.967,257.77z"/>
<path fill-rule="evenodd" clip-rule="evenodd" fill="#E0E0E0" d="M434.783,253.497c0.115,0.08,0.23,0.161,0.346,0.241
	c-0.125-0.026-0.25-0.053-0.375-0.079C434.723,253.598,434.734,253.544,434.783,253.497z"/>
<path fill-rule="evenodd" clip-rule="evenodd" fill="#7A7A7B" d="M431.791,164.531c-0.023-2.838-0.051-5.677-0.07-8.515
	c-0.113-15.92-0.229-31.839-0.324-47.759c-0.004-0.652,0.176-1.305,0.27-1.957c0.111,0.031,0.221,0.064,0.33,0.096
	c0.051,1.076,0.143,2.152,0.15,3.229c0.121,15.015,0.227,30.029,0.352,45.044c0.006,0.785,0.152,1.569,0.234,2.354
	c0.16,2.465,0.32,4.93,0.48,7.394c-0.281,0.107-0.563,0.215-0.842,0.321C432.178,164.67,431.984,164.601,431.791,164.531z"/>
<path fill-rule="evenodd" clip-rule="evenodd" fill="#868686" d="M431.791,164.531c0.193,0.069,0.387,0.139,0.578,0.208
	c0.076,0.328,0.217,0.656,0.221,0.984c0.066,6.811,0.127,13.621,0.172,20.432c0.078,12.171,0.146,24.343,0.219,36.514
	c-0.201,0.009-0.402,0.018-0.604,0.026c-0.088-5.001-0.213-10.001-0.258-15.002C431.992,193.306,431.898,178.919,431.791,164.531z"
	/>
<path fill-rule="evenodd" clip-rule="evenodd" fill="#A6A5A6" d="M432.377,222.695c0.201-0.009,0.402-0.018,0.604-0.026
	c0.193,0.45,0.389,0.901,0.584,1.353c0.201-0.188,0.4-0.376,0.602-0.563c-0.002,0,0.113-0.004,0.113-0.004l0.107,0.033
	c0.01,2.813,0.018,5.626,0.025,8.438c-0.01,0.429-0.018,0.858-0.025,1.288c-0.094,0.025-0.186,0.051-0.279,0.078
	c-0.184-0.431-0.367-0.86-0.551-1.29c-0.119,0.014-0.24,0.028-0.361,0.043c0,7.608,0,15.218,0,22.827
	c-0.186,0.016-0.371,0.031-0.557,0.047c-0.072-0.479-0.201-0.958-0.209-1.438c-0.086-6.022-0.197-12.045-0.217-18.067
	C432.199,231.174,432.318,226.935,432.377,222.695z"/>
<path fill-rule="evenodd" clip-rule="evenodd" fill="#E0E0E0" d="M434.107,233.292c0.094-0.027,0.186-0.053,0.279-0.078
	c0.018,5.802,0.021,11.604,0.068,17.407c0.008,0.953,0.207,1.905,0.318,2.856c-0.225-0.491-0.637-0.981-0.641-1.475
	C434.09,245.766,434.105,239.528,434.107,233.292z"/>
<path fill-rule="evenodd" clip-rule="evenodd" fill="#696969" d="M432.361,98.553c0,2.467,0,4.934,0,7.4
	c-0.225,0.042-0.449,0.084-0.674,0.125c-0.045-2.242-0.09-4.484-0.135-6.728c0.156-0.384,0.313-0.769,0.469-1.153
	C432.135,98.316,432.248,98.436,432.361,98.553z"/>
<path fill-rule="evenodd" clip-rule="evenodd" fill="#CBCACA" d="M431.688,106.078c0.225-0.041,0.449-0.083,0.674-0.125l0.035,0.156
	c-0.135,0.096-0.268,0.191-0.4,0.287c-0.109-0.031-0.219-0.064-0.33-0.096C431.641,106.223,431.648,106.15,431.688,106.078z"/>
<path fill-rule="evenodd" clip-rule="evenodd" fill="#BEBDBD" d="M452.471,179.072c-0.502-0.015-1.002-0.029-1.504-0.045
	c-0.188,0.011-0.377,0.021-0.566,0.031c-1.486,0.227-2.16-0.47-2.441-1.904c-0.877-4.47-0.936-8.938-0.096-13.405
	c0.412-2.194,0.871-2.425,3.141-2.005c0.273,0.051,0.566,0.003,0.852,0c0.326,1.48,0.877,2.952,0.932,4.442
	c0.115,3.124-0.049,6.257-0.059,9.386c-0.004,0.888,0.127,1.774,0.195,2.662C452.773,178.514,452.621,178.793,452.471,179.072z"/>
<path fill-rule="evenodd" clip-rule="evenodd" fill="#FFFFFF" d="M431.996,106.396c0.133-0.096,0.266-0.191,0.4-0.287
	c0.232,0.543,0.662,1.082,0.67,1.629c0.066,4.768,0.059,9.537,0.072,14.307c0.133,1.876,0.266,3.754,0.398,5.63
	c-0.002,3.643-0.008,7.286-0.004,10.929c0.008,5.522,0.049,11.045,0.002,16.567c-0.006,0.631,0.543,1.718-0.803,1.853
	c-0.082-0.784-0.229-1.568-0.234-2.354c-0.125-15.015-0.23-30.029-0.352-45.044C432.139,108.549,432.047,107.473,431.996,106.396z"
	/>
<path fill-rule="evenodd" clip-rule="evenodd" fill="#696969" d="M433.221,99.697c0.049,0.746,0.096,1.492,0.145,2.238
	c-0.049,1.029-0.098,2.061-0.146,3.09C432.453,103.885,432.453,100.741,433.221,99.697z"/>
<path fill-rule="evenodd" clip-rule="evenodd" fill="#BEBDBD" d="M446.83,179.486c0.311,0.257,0.623,0.513,0.938,0.764
	c-0.336,0.076-0.674,0.157-1.012,0.237C446.781,180.154,446.805,179.82,446.83,179.486z"/>
<path fill-rule="evenodd" clip-rule="evenodd" fill="#9A9A9A" d="M450.4,179.059c0.189-0.01,0.379-0.021,0.566-0.031
	C450.779,179.038,450.59,179.049,450.4,179.059z"/>
<path fill-rule="evenodd" clip-rule="evenodd" fill="#FFFFFF" d="M434.166,223.458c-0.201,0.188-0.4,0.376-0.602,0.563
	c-0.195-0.451-0.391-0.902-0.584-1.353c-0.072-12.171-0.141-24.343-0.219-36.514c-0.045-6.811-0.105-13.621-0.172-20.432
	c-0.004-0.328-0.145-0.656-0.221-0.984c0.281-0.107,0.563-0.215,0.844-0.321c0.092,0.333,0.186,0.666,0.277,0.998
	c-0.012,1.434-0.021,2.867-0.033,4.301c0.096,2.553,0.264,5.106,0.277,7.661c0.045,8.829,0.035,17.659,0.047,26.488
	C433.91,210.397,434.037,216.928,434.166,223.458z"/>
<path fill-rule="evenodd" clip-rule="evenodd" fill="#868686" d="M433.49,165.416c-0.092-0.332-0.186-0.665-0.277-0.998
	c-0.16-2.465-0.32-4.93-0.48-7.395c1.346-0.135,0.797-1.222,0.803-1.853c0.047-5.522,0.006-11.045-0.002-16.567
	c-0.004-3.643,0.002-7.286,0.004-10.929c0.025,7.921,0.041,15.841,0.078,23.761c0.02,3.703,0.1,7.405,0.111,11.108
	C433.73,163.501,433.574,164.459,433.49,165.416z"/>
<path fill-rule="evenodd" clip-rule="evenodd" fill="#CBCACA" d="M433.781,203.866c-0.012-8.829-0.002-17.659-0.047-26.488
	c-0.014-2.555-0.182-5.108-0.277-7.661c0.213,0.622,0.607,1.243,0.609,1.865c0.037,10.761,0.025,21.521,0.023,32.282
	C433.986,203.876,433.885,203.877,433.781,203.866z"/>
<path fill-rule="evenodd" clip-rule="evenodd" fill="#E0E0E0" d="M433.781,203.866c0.104,0.011,0.205,0.01,0.309-0.002
	c0.1,6.54,0.199,13.081,0.299,19.622c-0.002,0.001-0.109-0.032-0.109-0.032s-0.115,0.004-0.113,0.004
	C434.037,216.928,433.91,210.397,433.781,203.866z"/>
</svg>
